0
SECTION
2
ENTITIES
0
LINE
8
0
10
-1,8811
20
-19,9946
30
-159,4909
11
-1,8811
21
-24,7293
31
-171,0915
0
LINE
8
0
10
-6,8317
20
-19,7997
30
-163,4320
11
-6,8317
21
-19,7997
31
-173,2051
0
LINE
8
0
10
-6,8317
20
-19,7997
30
-173,2051
11
-6,8317
21
-26,9545
31
-150,4193
0
LINE
8
0
10
-1,8623
20
-22,5471
30
-168,1576
11
-1,8623
21
-22,5471
31
-173,2051
0
LINE
8
0
10
-1,8623
20
-22,5471
30
-173,2051
11
-1,8623
21
-26,6749
31
-173,2051
0
LINE
8
0
10
-1,8623
20
-26,6749
30
-173,2051
11
-1,8623
21
-22,5471
31
-173,2051
0
LINE
8
0
10
-0,8104
20
-21,7404
30
-144,2338
11
-0,8104
21
-21,2317
31
-147,4395
0
LINE
8
0
10
-0,8104
20
-21,2317
30
-147,4395
11
-0,8104
21
-27,7746
31
-147,4395
0
LINE
8
0
10
-0,8104
20
-27,7746
30
-147,4395
11
-0,8104
21
-21,2774
31
-147,4395
0
LINE
8
0
10
-7,1671
20
-21,7489
30
-161,2367
11
-0,7887
21
-21,3536
31
-161,2367
0
LINE
8
0
10
-7,1671
20
-21,7489
30
-161,2367
11
-7,1671
21
-21,3536
31
-173,2051
0
LINE
8
0
10
-6,1640
20
-20,1886
30
-148,3065
11
-6,1640
21
-20,1886
31
-131,6680
0
LINE
8
0
10
-6,1640
20
-20,1886
30
-131,6680
11
-1,2475
21
-21,9061
31
-162,7493
0
LINE
8
0
10
-1,2475
20
-22,5737
30
-131,6680
11
-6,1640
21
-22,5737
31
-162,1765
0
LINE
8
0
10
-6,1640
20
-22,5737
30
-162,1765
11
-6,1640
21
-22,5737
31
-162,7493
0
LINE
8
0
10
-2,7752
20
-28,8182
30
-173,2051
11
-0,7600
21
-24,6783
31
-129,9150
0
LINE
8
0
10
-0,7600
20
-24,6783
30
-129,9150
11
-0,7600
21
-28,8182
31
-129,9150
0
LINE
8
0
10
-2,7752
20
-25,9392
30
-167,8575
11
-0,7600
21
-24,5358
31
-167,8575
0
LINE
8
0
10
-0,7600
20
-24,5358
30
-167,8575
11
-2,7752
21
-24,6783
31
-129,9150
0
LINE
8
0
10
-5,5929
20
-26,8253
30
-152,5106
11
-5,5929
21
-20,6738
31
-138,9161
0
LINE
8
0
10
-5,5929
20
-20,6738
30
-138,9161
11
-5,5929
21
-28,5946
31
-173,2051
0
LINE
8
0
10
-5,5929
20
-28,5946
30
-173,2051
11
-5,5929
21
-20,6738
31
-144,5394
0
LINE
8
0
10
-5,5929
20
-28,5946
30
-152,5106
11
-5,0011
21
-20,6738
31
-132,4385
0
LINE
8
0
10
-5,0011
20
-20,6738
30
-132,4385
11
-5,0011
21
-28,5946
31
-132,4385
0
LINE
8
0
10
-5,0011
20
-28,5946
30
-132,4385
11
-5,5929
21
-21,6268
31
-152,5106
0
LINE
8
0
10
-5,5929
20
-21,6268
30
-152,5106
11
-5,5929
21
-21,6268
31
-144,5394
0
LINE
8
0
10
-4,1754
20
-27,2842
30
-155,7647
11
-4,1754
21
-27,2842
31
-124,3011
0
LINE
8
0
10
-4,1754
20
-19,5447
30
-124,3011
11
1,1436
21
-19,5447
31
-137,3214
0
LINE
8
0
10
-4,1754
20
-27,2842
30
-164,8822
11
-4,1754
21
-19,5447
31
-165,9604
0
LINE
8
0
10
0,1975
20
-26,3181
30
-167,3387
11
0,1975
21
-24,9422
31
-166,8534
0
LINE
8
0
10
0,1975
20
-24,9422
30
-166,8534
11
0,1975
21
-24,9422
31
-173,2051
0
LINE
8
0
10
0,1975
20
-26,3181
30
-166,8534
11
-5,2325
21
-26,3181
31
-158,8040
0
LINE
8
0
10
-5,2325
20
-26,3181
30
-158,8040
11
0,1975
21
-26,3181
31
-167,3387
0
LINE
8
0
10
0,1975
20
-24,9422
30
-158,8040
11
-5,2325
21
-26,3181
31
-167,3387
0
LINE
8
0
10
-5,2325
20
-26,3181
30
-167,3387
11
0,1975
21
-28,6723
31
-158,8040
0
LINE
8
0
10
-7,3389
20
-22,4879
30
-168,8819
11
-3,3452
21
-27,3976
31
-160,2914
0
LINE
8
0
10
-3,3452
20
-27,3976
30
-160,2914
11
-6,9913
21
-19,7797
31
-160,2914
0
LINE
8
0
10
-6,9913
20
-19,7797
30
-160,2914
11
-3,3452
21
-22,4879
31
-133,0698
0
LINE
8
0
10
-3,3452
20
-19,7797
30
-123,7997
11
-7,3389
21
-26,9354
31
-160,2914
0
LINE
8
0
10
-7,3389
20
-26,9354
30
-160,2914
11
-3,3452
21
-22,4879
31
-123,7997
0
LINE
8
0
10
-3,3452
20
-22,4879
30
-123,7997
11
-3,3452
21
-27,3976
31
-123,7997
0
LINE
8
0
10
-7,3389
20
-27,3976
30
-168,8819
11
-6,9913
21
-27,3976
31
-168,8819
0
LINE
8
0
10
-6,9913
20
-27,3976
30
-168,8819
11
-7,3389
21
-27,3976
31
-173,2051
0
LINE
8
0
10
-7,3389
20
-27,3976
30
-173,2051
11
-7,3389
21
-19,7797
31
-173,2051
0
LINE
8
0
10
-3,8455
20
-20,9147
30
-152,6383
11
-3,8455
21
-21,0212
31
-142,8857
0
LINE
8
0
10
-3,8455
20
-21,0212
30
-142,8857
11
-1,8878
21
-21,1264
31
-127,2193
0
LINE
8
0
10
-1,8878
20
-21,1264
30
-127,2193
11
-3,8455
21
-20,9147
31
-152,6383
0
LINE
8
0
10
-3,8455
20
-20,9147
30
-152,6383
11
-3,8455
21
-21,0212
31
-169,8152
0
LINE
8
0
10
-3,8455
20
-21,1264
30
-173,2051
11
-1,8878
21
-23,3278
31
-148,1999
0
LINE
8
0
10
-1,8878
20
-23,3278
30
-148,1999
11
-1,8878
21
-21,1264
31
-152,6383
0
LINE
8
0
10
-1,8878
20
-21,1264
30
-152,6383
11
-1,8878
21
-28,8904
31
-173,2051
0
LINE
8
0
10
-1,8878
20
-28,8904
30
-173,2051
11
-2,6122
21
-23,3278
31
-173,2051
0
LINE
8
0
10
-1,8878
20
-21,0212
30
-127,2193
11
-2,6122
21
-28,8904
31
-148,1999
0
LINE
8
0
10
-2,6122
20
-28,8904
30
-148,1999
11
-3,8455
21
-23,3278
31
-127,2193
0
LINE
8
0
10
-3,8455
20
-23,3278
30
-127,2193
11
-2,6122
21
-20,9147
31
-169,8152
0
LINE
8
0
10
-2,6122
20
-20,9147
30
-169,8152
11
-3,8455
21
-23,3278
31
-173,2051
0
LINE
8
0
10
1,1288
20
-28,8015
30
-137,1427
11
-0,0908
21
-19,3554
31
-150,5817
0
LINE
8
0
10
-4,6087
20
-28,8015
30
-122,1154
11
-3,7401
21
-28,8015
31
-167,9442
0
LINE
8
0
10
1,1288
20
-19,3554
30
-173,2051
11
-4,6087
21
-28,8015
31
-137,1427
0
LINE
8
0
10
-4,6087
20
-28,8015
30
-173,2051
11
-4,6087
21
-19,3554
31
-122,1154
0
LINE
8
0
10
-4,3801
20
-21,1341
30
-153,1053
11
-4,3801
21
-21,1341
31
-173,2051
0
LINE
8
0
10
-4,3801
20
-21,1341
30
-173,2051
11
-3,8026
21
-21,1341
31
-157,6372
0
LINE
8
0
10
1,7838
20
-21,1341
30
-158,0248
11
-3,8026
21
-21,1341
31
-161,7978
0
LINE
8
0
10
-3,8026
20
-21,1341
30
-161,7978
11
-5,1277
21
-25,3918
31
-153,1053
0
LINE
8
0
10
1,7838
20
-26,0764
30
-173,2051
11
-5,1277
21
-21,1341
31
-161,7978
0
LINE
8
0
10
-5,1277
20
-21,1341
30
-161,7978
11
1,7838
21
-26,0764
31
-113,5799
0
LINE
8
0
10
-3,8026
20
-21,1341
30
-153,1053
11
-4,3801
21
-21,1341
31
-173,2051
0
LINE
8
0
10
-4,3801
20
-21,1341
30
-173,2051
11
-5,1277
21
-25,3918
31
-158,0248
0
LINE
8
0
10
-1,5499
20
-25,0795
30
-165,9154
11
-1,5499
21
-25,0795
31
-159,6297
0
LINE
8
0
10
-1,5499
20
-25,0795
30
-159,6297
11
-5,2318
21
-25,0795
31
-173,2051
0
LINE
8
0
10
-5,2318
20
-25,0795
30
-173,2051
11
-1,5499
21
-26,5737
31
-173,2051
0
LINE
8
0
10
-5,1195
20
-26,8833
30
-167,1712
11
-5,2318
21
-25,0795
31
-173,2051
0
LINE
8
0
10
-5,2318
20
-25,0795
30
-173,2051
11
-5,1195
21
-28,3840
31
-173,2051
0
LINE
8
0
10
-5,1195
20
-28,3840
30
-173,2051
11
-1,5499
21
-26,5737
31
-167,1712
0
LINE
8
0
10
-3,5415
20
-26,8833
30
-146,3626
11
-3,5415
21
-26,5737
31
-169,7117
0
LINE
8
0
10
-3,5415
20
-26,5737
30
-169,7117
11
-3,5415
21
-25,0795
31
-169,7117
0
LINE
8
0
10
-3,5415
20
-25,0795
30
-169,7117
11
-5,2318
21
-28,3840
31
-169,7117
0
LINE
8
0
10
-1,5499
20
-28,3840
30
-169,7117
11
-5,2318
21
-26,8833
31
-159,6297
0
LINE
8
0
10
-5,2318
20
-26,8833
30
-159,6297
11
-1,5499
21
-26,5737
31
-167,1712
0
LINE
8
0
10
-2,3659
20
-28,6326
30
-166,0447
11
-2,3659
21
-26,2485
31
-162,8026
0
LINE
8
0
10
-2,3659
20
-26,2485
30
-162,8026
11
-2,5425
21
-26,7621
31
-111,0690
0
LINE
8
0
10
-2,5425
20
-26,7621
30
-111,0690
11
-2,3659
21
-28,6326
31
-166,0447
0
LINE
8
0
10
-2,3659
20
-28,6326
30
-166,0447
11
-0,6187
21
-26,2485
31
-111,0690
0
LINE
8
0
10
-0,6187
20
-26,7621
30
-141,0862
11
-0,4194
21
-26,7621
31
-162,8026
0
LINE
8
0
10
-0,4194
20
-26,7621
30
-162,8026
11
-0,6187
21
-28,6326
31
-141,0862
0
LINE
8
0
10
-0,6187
20
-28,6326
30
-141,0862
11
-2,3659
21
-26,7390
31
-124,8998
0
LINE
8
0
10
-2,3659
20
-26,7390
30
-124,8998
11
-0,4194
21
-26,7621
31
-141,0862
0
LINE
8
0
10
-0,6187
20
-26,7390
30
-173,2051
11
-0,4194
21
-26,7621
31
-141,0862
0
LINE
8
0
10
-0,4194
20
-26,7621
30
-141,0862
11
-2,3659
21
-26,7621
31
-124,8998
0
LINE
8
0
10
-2,3659
20
-26,7621
30
-124,8998
11
-2,3659
21
-21,8438
31
-141,0862
0
LINE
8
0
10
-2,3659
20
-21,8438
30
-141,0862
11
-0,4194
21
-28,6326
31
-124,8998
0
LINE
8
0
10
-2,5425
20
-26,7621
30
-166,0447
11
-0,6187
21
-26,7621
31
-173,2051
0
LINE
8
0
10
-0,6187
20
-26,7621
30
-173,2051
11
-2,5425
21
-26,2485
31
-124,8998
0
LINE
8
0
10
-2,5425
20
-26,2485
30
-124,8998
11
-2,3659
21
-26,2485
31
-141,0862
0
LINE
8
0
10
-2,3659
20
-26,2485
30
-141,0862
11
-2,5425
21
-26,7621
31
-111,0690
0
LINE
8
0
10
-7,0862
20
-28,3311
30
-173,2051
11
1,6831
21
-28,3542
31
-156,9940
0
LINE
8
0
10
-5,3571
20
-28,3311
30
-163,7198
11
-5,3571
21
-28,3311
31
-160,6558
0
LINE
8
0
10
1,6831
20
-28,3311
30
-173,2051
11
-5,3571
21
-28,3542
31
-139,1857
0
LINE
8
0
10
1,6831
20
-28,3311
30
-173,2051
11
-3,9968
21
-28,3311
31
-156,9940
0
LINE
8
0
10
-3,9968
20
-28,3542
30
-156,0210
11
-5,3571
21
-28,3311
31
-173,2051
0
LINE
8
0
10
-1,4876
20
-26,5332
30
-153,9420
11
-1,4876
21
-28,5665
31
-170,3136
0
LINE
8
0
10
-1,4876
20
-28,5665
30
-170,3136
11
-5,1048
21
-20,8858
31
-173,2051
0
LINE
8
0
10
0,3453
20
-26,5332
30
-170,3136
11
-1,4876
21
-28,5665
31
-153,9420
0
LINE
8
0
10
-1,4876
20
-28,5665
30
-153,9420
11
0,3453
21
-26,5332
31
-145,5008
0
LINE
8
0
10
0,3453
20
-20,8858
30
-162,6039
11
-3,4507
21
-20,8858
31
-145,5008
0
LINE
8
0
10
-3,4507
20
-20,8858
30
-145,5008
11
-4,6153
21
-26,5332
31
-153,9420
0
LINE
8
0
10
0,3453
20
-20,8858
30
-173,2051
11
-5,1048
21
-20,8858
31
-170,3136
0
LINE
8
0
10
-5,1048
20
-20,8858
30
-170,3136
11
-5,1048
21
-26,5332
31
-145,5008
0
LINE
8
0
10
-1,4876
20
-28,5665
30
-153,9420
11
-5,1048
21
-28,5665
31
-153,9420
0
LINE
8
0
10
-5,1048
20
-28,5665
30
-153,9420
11
-4,6153
21
-26,5332
31
-130,5137
0
LINE
8
0
10
-2,0978
20
-19,4322
30
-165,5625
11
-4,1421
21
-24,9510
31
-134,5912
0
LINE
8
0
10
-4,1421
20
-24,9510
30
-134,5912
11
1,4617
21
-19,4322
31
-137,4271
0
LINE
8
0
10
1,4617
20
-19,4322
30
-137,4271
11
-2,5030
21
-25,4670
31
-173,2051
0
LINE
8
0
10
-4,1421
20
-25,4670
30
-143,4869
11
-2,5030
21
-21,0117
31
-160,8653
0
LINE
8
0
10
-2,5030
20
-21,0117
30
-160,8653
11
-4,1421
21
-25,4670
31
-160,8653
0
LINE
8
0
10
-4,1421
20
-25,4670
30
-160,8653
11
-2,0978
21
-19,4322
31
-165,5625
0
LINE
8
0
10
-2,0978
20
-25,4670
30
-160,8653
11
-4,1421
21
-21,0117
31
-165,5625
0
LINE
8
0
10
-4,1421
20
-21,0117
30
-165,5625
11
-4,1421
21
-21,0117
31
-137,4271
0
LINE
8
0
10
-4,1421
20
-21,0117
30
-137,4271
11
-2,0978
21
-25,4670
31
-160,8653
0
LINE
8
0
10
-4,1421
20
-19,4322
30
-143,4869
11
-2,5030
21
-19,4322
31
-137,4271
0
LINE
8
0
10
-2,5030
20
-19,4322
30
-137,4271
11
-4,1421
21
-24,9510
31
-143,4869
0
LINE
8
0
10
-4,1421
20
-24,9510
30
-143,4869
11
-2,1861
21
-21,0117
31
-173,2051
0
LINE
8
0
10
-2,1861
20
-19,4322
30
-134,5912
11
-2,0978
21
-19,4322
31
-137,4271
0
LINE
8
0
10
-2,0978
20
-19,4322
30
-137,4271
11
1,4617
21
-25,4670
31
-165,5625
0
LINE
8
0
10
-2,1263
20
-23,3017
30
-154,9982
11
-2,1455
21
-20,9408
31
-168,4526
0
LINE
8
0
10
-2,1455
20
-20,9408
30
-168,4526
11
-2,1263
21
-20,9408
31
-168,4526
0
LINE
8
0
10
-2,1263
20
-20,9408
30
-168,4526
11
-1,2021
21
-19,1846
31
-173,2051
0
LINE
8
0
10
-1,2021
20
-19,1846
30
-173,2051
11
-6,9665
21
-20,9408
31
-168,4526
0
LINE
8
0
10
-2,1263
20
-28,1368
30
-122,8643
11
-2,1263
21
-23,3017
31
-122,8643
0
LINE
8
0
10
-2,1263
20
-23,3017
30
-122,8643
11
-6,9665
21
-23,3017
31
-122,8643
0
LINE
8
0
10
-6,9665
20
-23,3017
30
-122,8643
11
-6,9665
21
-20,9408
31
-168,4526
0
LINE
8
0
10
-2,1263
20
-20,9408
30
-173,2051
11
-2,1455
21
-28,8144
31
-122,8643
0
LINE
8
0
10
-2,1455
20
-28,8144
30
-122,8643
11
-2,1455
21
-28,8144
31
-140,2695
0
LINE
8
0
10
-2,1455
20
-28,8144
30
-140,2695
11
-2,1455
21
-28,8144
31
-154,9982
0
LINE
8
0
10
-2,1455
20
-28,8144
30
-154,9982
11
-2,1263
21
-20,9408
31
-154,9982
0
LINE
8
0
10
-2,1263
20
-20,9408
30
-140,2695
11
-6,9665
21
-19,1846
31
-168,4526
0
LINE
8
0
10
-6,9665
20
-19,1846
30
-168,4526
11
-2,1455
21
-20,9408
31
-168,4526
0
LINE
8
0
10
-2,1455
20
-20,9408
30
-168,4526
11
-2,1455
21
-23,3017
31
-154,9982
0
LINE
8
0
10
-2,1455
20
-23,3017
30
-154,9982
11
-6,9665
21
-20,9408
31
-140,2695
0
LINE
8
0
10
1,0594
20
-28,1368
30
-140,2695
11
-2,1455
21
-19,1846
31
-140,2695
0
LINE
8
0
10
-2,1455
20
-19,1846
30
-140,2695
11
1,0594
21
-19,1846
31
-140,2695
0
LINE
8
0
10
1,0594
20
-19,1846
30
-140,2695
11
-6,9665
21
-28,8144
31
-140,2695
0
LINE
8
0
10
-6,9665
20
-28,8144
30
-140,2695
11
-2,1263
21
-23,3017
31
-122,8643
0
ENDSEC
0
EOF
