0
SECTION
2
ENTITIES
0
LINE
8
0
10
-375,0000
20
-375,0000
30
-433,0127
11
-125,0000
21
-375,0000
31
-433,0127
0
LINE
8
0
10
-125,0000
20
-375,0000
30
-433,0127
11
-125,0000
21
-125,0000
31
-433,0127
0
LINE
8
0
10
-125,0000
20
-125,0000
30
-433,0127
11
-375,0000
21
-125,0000
31
-433,0127
0
LINE
8
0
10
-375,0000
20
-125,0000
30
-433,0127
11
-375,0000
21
-375,0000
31
-433,0127
0
LINE
8
0
10
-125,0000
20
-375,0000
30
-433,0127
11
-125,0000
21
-125,0000
31
-433,0127
0
LINE
8
0
10
-125,0000
20
-125,0000
30
-433,0127
11
-125,0000
21
-375,0000
31
-433,0127
0
LINE
8
0
10
-125,0000
20
-375,0000
30
-433,0127
11
-375,0000
21
-375,0000
31
-433,0127
0
LINE
8
0
10
-375,0000
20
-375,0000
30
-433,0127
11
-125,0000
21
-375,0000
31
-433,0127
0
LINE
8
0
10
-375,0000
20
-125,0000
30
-433,0127
11
-125,0000
21
-125,0000
31
-433,0127
0
LINE
8
0
10
-125,0000
20
-125,0000
30
-433,0127
11
-375,0000
21
-375,0000
31
-433,0127
0
LINE
8
0
10
-375,0000
20
-375,0000
30
-433,0127
11
-375,0000
21
-125,0000
31
-433,0127
0
LINE
8
0
10
-375,0000
20
-125,0000
30
-433,0127
11
-375,0000
21
-125,0000
31
-433,0127
0
LINE
8
0
10
-375,0000
20
-375,0000
30
-433,0127
11
-125,0000
21
-375,0000
31
-433,0127
0
LINE
8
0
10
-125,0000
20
-375,0000
30
-433,0127
11
-375,0000
21
-375,0000
31
-433,0127
0
LINE
8
0
10
-375,0000
20
-375,0000
30
-433,0127
11
-375,0000
21
-125,0000
31
-433,0127
0
LINE
8
0
10
-375,0000
20
-125,0000
30
-433,0127
11
-375,0000
21
-375,0000
31
-433,0127
0
LINE
8
0
10
-125,0000
20
-125,0000
30
-433,0127
11
-375,0000
21
-125,0000
31
-433,0127
0
LINE
8
0
10
-375,0000
20
-125,0000
30
-433,0127
11
7,2737
21
-537,9399
31
-556,7682
0
LINE
8
0
10
7,2737
20
-537,9399
30
-556,7682
11
-507,2737
21
-537,9399
31
-556,7682
0
LINE
8
0
10
-507,2737
20
-537,9399
30
-556,7682
11
-125,0000
21
-125,0000
31
-433,0127
0
LINE
8
0
10
-379,3683
20
-380,9146
30
-435,9741
11
-120,6317
21
-380,9146
31
-435,9741
0
LINE
8
0
10
-120,6317
20
-380,9146
30
-435,9741
11
-120,6317
21
-119,0854
31
-435,9741
0
LINE
8
0
10
-120,6317
20
-119,0854
30
-435,9741
11
-379,3683
21
-119,0854
31
-435,9741
0
LINE
8
0
10
-379,3683
20
-119,0854
30
-435,9741
11
-379,3683
21
-380,9146
31
-435,9741
0
LINE
8
0
10
-120,6317
20
-380,9146
30
-435,9741
11
-120,6317
21
-380,9146
31
-430,0513
0
LINE
8
0
10
-120,6317
20
-380,9146
30
-430,0513
11
-120,6317
21
-119,0854
31
-430,0513
0
LINE
8
0
10
-120,6317
20
-119,0854
30
-430,0513
11
-120,6317
21
-119,0854
31
-435,9741
0
LINE
8
0
10
-120,6317
20
-119,0854
30
-435,9741
11
-120,6317
21
-380,9146
31
-435,9741
0
LINE
8
0
10
-120,6317
20
-380,9146
30
-430,0513
11
-379,3683
21
-380,9146
31
-430,0513
0
LINE
8
0
10
-379,3683
20
-380,9146
30
-430,0513
11
-379,3683
21
-119,0854
31
-430,0513
0
LINE
8
0
10
-379,3683
20
-119,0854
30
-430,0513
11
-120,6317
21
-119,0854
31
-430,0513
0
LINE
8
0
10
-120,6317
20
-119,0854
30
-430,0513
11
-120,6317
21
-380,9146
31
-430,0513
0
LINE
8
0
10
-379,3683
20
-380,9146
30
-430,0513
11
-379,3683
21
-380,9146
31
-435,9741
0
LINE
8
0
10
-379,3683
20
-380,9146
30
-435,9741
11
-379,3683
21
-119,0854
31
-435,9741
0
LINE
8
0
10
-379,3683
20
-119,0854
30
-435,9741
11
-379,3683
21
-119,0854
31
-430,0513
0
LINE
8
0
10
-379,3683
20
-119,0854
30
-430,0513
11
-379,3683
21
-380,9146
31
-430,0513
0
LINE
8
0
10
-379,3683
20
-380,9146
30
-430,0513
11
-120,6317
21
-380,9146
31
-430,0513
0
LINE
8
0
10
-120,6317
20
-380,9146
30
-430,0513
11
-120,6317
21
-380,9146
31
-435,9741
0
LINE
8
0
10
-120,6317
20
-380,9146
30
-435,9741
11
-379,3683
21
-380,9146
31
-435,9741
0
LINE
8
0
10
-379,3683
20
-380,9146
30
-435,9741
11
-379,3683
21
-380,9146
31
-430,0513
0
LINE
8
0
10
-379,3683
20
-119,0854
30
-435,9741
11
-120,6317
21
-119,0854
31
-435,9741
0
LINE
8
0
10
-120,6317
20
-119,0854
30
-435,9741
11
-120,6317
21
-119,0854
31
-430,0513
0
LINE
8
0
10
-120,6317
20
-119,0854
30
-430,0513
11
-379,3683
21
-119,0854
31
-430,0513
0
LINE
8
0
10
-379,3683
20
-119,0854
30
-430,0513
11
-379,3683
21
-119,0854
31
-435,9741
0
LINE
8
0
10
-378,1958
20
-376,6225
30
-436,0973
11
-121,8042
21
-376,6225
31
-436,0973
0
LINE
8
0
10
-121,8042
20
-376,6225
30
-436,0973
11
-121,8042
21
-123,3775
31
-436,0973
0
LINE
8
0
10
-121,8042
20
-123,3775
30
-436,0973
11
-378,1958
21
-123,3775
31
-436,0973
0
LINE
8
0
10
-378,1958
20
-123,3775
30
-436,0973
11
-378,1958
21
-376,6225
31
-436,0973
0
LINE
8
0
10
-121,8042
20
-376,6225
30
-436,0973
11
-121,8042
21
-376,6225
31
-429,9281
0
LINE
8
0
10
-121,8042
20
-376,6225
30
-429,9281
11
-121,8042
21
-123,3775
31
-429,9281
0
LINE
8
0
10
-121,8042
20
-123,3775
30
-429,9281
11
-121,8042
21
-123,3775
31
-436,0973
0
LINE
8
0
10
-121,8042
20
-123,3775
30
-436,0973
11
-121,8042
21
-376,6225
31
-436,0973
0
LINE
8
0
10
-121,8042
20
-376,6225
30
-429,9281
11
-378,1958
21
-376,6225
31
-429,9281
0
LINE
8
0
10
-378,1958
20
-376,6225
30
-429,9281
11
-378,1958
21
-123,3775
31
-429,9281
0
LINE
8
0
10
-378,1958
20
-123,3775
30
-429,9281
11
-121,8042
21
-123,3775
31
-429,9281
0
LINE
8
0
10
-121,8042
20
-123,3775
30
-429,9281
11
-121,8042
21
-376,6225
31
-429,9281
0
LINE
8
0
10
-378,1958
20
-376,6225
30
-429,9281
11
-378,1958
21
-376,6225
31
-436,0973
0
LINE
8
0
10
-378,1958
20
-376,6225
30
-436,0973
11
-378,1958
21
-123,3775
31
-436,0973
0
LINE
8
0
10
-378,1958
20
-123,3775
30
-436,0973
11
-378,1958
21
-123,3775
31
-429,9281
0
LINE
8
0
10
-378,1958
20
-123,3775
30
-429,9281
11
-378,1958
21
-376,6225
31
-429,9281
0
LINE
8
0
10
-378,1958
20
-376,6225
30
-429,9281
11
-121,8042
21
-376,6225
31
-429,9281
0
LINE
8
0
10
-121,8042
20
-376,6225
30
-429,9281
11
-121,8042
21
-376,6225
31
-436,0973
0
LINE
8
0
10
-121,8042
20
-376,6225
30
-436,0973
11
-378,1958
21
-376,6225
31
-436,0973
0
LINE
8
0
10
-378,1958
20
-376,6225
30
-436,0973
11
-378,1958
21
-376,6225
31
-429,9281
0
LINE
8
0
10
-378,1958
20
-123,3775
30
-436,0973
11
-121,8042
21
-123,3775
31
-436,0973
0
LINE
8
0
10
-121,8042
20
-123,3775
30
-436,0973
11
-121,8042
21
-123,3775
31
-429,9281
0
LINE
8
0
10
-121,8042
20
-123,3775
30
-429,9281
11
-378,1958
21
-123,3775
31
-429,9281
0
LINE
8
0
10
-378,1958
20
-123,3775
30
-429,9281
11
-378,1958
21
-123,3775
31
-436,0973
0
LINE
8
0
10
-388,5661
20
-383,2871
30
-454,7759
11
-111,4339
21
-383,2871
31
-454,7759
0
LINE
8
0
10
-111,4339
20
-383,2871
30
-454,7759
11
-111,4339
21
-116,7129
31
-454,7759
0
LINE
8
0
10
-111,4339
20
-116,7129
30
-454,7759
11
-388,5661
21
-116,7129
31
-454,7759
0
LINE
8
0
10
-388,5661
20
-116,7129
30
-454,7759
11
-388,5661
21
-383,2871
31
-454,7759
0
LINE
8
0
10
-111,4339
20
-383,2871
30
-454,7759
11
-111,4339
21
-383,2871
31
-411,2495
0
LINE
8
0
10
-111,4339
20
-383,2871
30
-411,2495
11
-111,4339
21
-116,7129
31
-411,2495
0
LINE
8
0
10
-111,4339
20
-116,7129
30
-411,2495
11
-111,4339
21
-116,7129
31
-454,7759
0
LINE
8
0
10
-111,4339
20
-116,7129
30
-454,7759
11
-111,4339
21
-383,2871
31
-454,7759
0
LINE
8
0
10
-111,4339
20
-383,2871
30
-411,2495
11
-388,5661
21
-383,2871
31
-411,2495
0
LINE
8
0
10
-388,5661
20
-383,2871
30
-411,2495
11
-388,5661
21
-116,7129
31
-411,2495
0
LINE
8
0
10
-388,5661
20
-116,7129
30
-411,2495
11
-111,4339
21
-116,7129
31
-411,2495
0
LINE
8
0
10
-111,4339
20
-116,7129
30
-411,2495
11
-111,4339
21
-383,2871
31
-411,2495
0
LINE
8
0
10
-388,5661
20
-383,2871
30
-411,2495
11
-388,5661
21
-383,2871
31
-454,7759
0
LINE
8
0
10
-388,5661
20
-383,2871
30
-454,7759
11
-388,5661
21
-116,7129
31
-454,7759
0
LINE
8
0
10
-388,5661
20
-116,7129
30
-454,7759
11
-388,5661
21
-116,7129
31
-411,2495
0
LINE
8
0
10
-388,5661
20
-116,7129
30
-411,2495
11
-388,5661
21
-383,2871
31
-411,2495
0
LINE
8
0
10
-388,5661
20
-383,2871
30
-411,2495
11
-111,4339
21
-383,2871
31
-411,2495
0
LINE
8
0
10
-111,4339
20
-383,2871
30
-411,2495
11
-111,4339
21
-383,2871
31
-454,7759
0
LINE
8
0
10
-111,4339
20
-383,2871
30
-454,7759
11
-388,5661
21
-383,2871
31
-454,7759
0
LINE
8
0
10
-388,5661
20
-383,2871
30
-454,7759
11
-388,5661
21
-383,2871
31
-411,2495
0
LINE
8
0
10
-388,5661
20
-116,7129
30
-454,7759
11
-111,4339
21
-116,7129
31
-454,7759
0
LINE
8
0
10
-111,4339
20
-116,7129
30
-454,7759
11
-111,4339
21
-116,7129
31
-411,2495
0
LINE
8
0
10
-111,4339
20
-116,7129
30
-411,2495
11
-388,5661
21
-116,7129
31
-411,2495
0
LINE
8
0
10
-388,5661
20
-116,7129
30
-411,2495
11
-388,5661
21
-116,7129
31
-454,7759
0
LINE
8
0
10
-378,6733
20
-392,6332
30
-452,9545
11
-121,3266
21
-392,6332
31
-452,9545
0
LINE
8
0
10
-121,3266
20
-392,6332
30
-452,9545
11
-121,3266
21
-107,3668
31
-452,9545
0
LINE
8
0
10
-121,3266
20
-107,3668
30
-452,9545
11
-378,6733
21
-107,3668
31
-452,9545
0
LINE
8
0
10
-378,6733
20
-107,3668
30
-452,9545
11
-378,6733
21
-392,6332
31
-452,9545
0
LINE
8
0
10
-121,3266
20
-392,6332
30
-452,9545
11
-121,3266
21
-392,6332
31
-413,0709
0
LINE
8
0
10
-121,3266
20
-392,6332
30
-413,0709
11
-121,3266
21
-107,3668
31
-413,0709
0
LINE
8
0
10
-121,3266
20
-107,3668
30
-413,0709
11
-121,3266
21
-107,3668
31
-452,9545
0
LINE
8
0
10
-121,3266
20
-107,3668
30
-452,9545
11
-121,3266
21
-392,6332
31
-452,9545
0
LINE
8
0
10
-121,3266
20
-392,6332
30
-413,0709
11
-378,6733
21
-392,6332
31
-413,0709
0
LINE
8
0
10
-378,6733
20
-392,6332
30
-413,0709
11
-378,6733
21
-107,3668
31
-413,0709
0
LINE
8
0
10
-378,6733
20
-107,3668
30
-413,0709
11
-121,3266
21
-107,3668
31
-413,0709
0
LINE
8
0
10
-121,3266
20
-107,3668
30
-413,0709
11
-121,3266
21
-392,6332
31
-413,0709
0
LINE
8
0
10
-378,6733
20
-392,6332
30
-413,0709
11
-378,6733
21
-392,6332
31
-452,9545
0
LINE
8
0
10
-378,6733
20
-392,6332
30
-452,9545
11
-378,6733
21
-107,3668
31
-452,9545
0
LINE
8
0
10
-378,6733
20
-107,3668
30
-452,9545
11
-378,6733
21
-107,3668
31
-413,0709
0
LINE
8
0
10
-378,6733
20
-107,3668
30
-413,0709
11
-378,6733
21
-392,6332
31
-413,0709
0
LINE
8
0
10
-378,6733
20
-392,6332
30
-413,0709
11
-121,3266
21
-392,6332
31
-413,0709
0
LINE
8
0
10
-121,3266
20
-392,6332
30
-413,0709
11
-121,3266
21
-392,6332
31
-452,9545
0
LINE
8
0
10
-121,3266
20
-392,6332
30
-452,9545
11
-378,6733
21
-392,6332
31
-452,9545
0
LINE
8
0
10
-378,6733
20
-392,6332
30
-452,9545
11
-378,6733
21
-392,6332
31
-413,0709
0
LINE
8
0
10
-378,6733
20
-107,3668
30
-452,9545
11
-121,3266
21
-107,3668
31
-452,9545
0
LINE
8
0
10
-121,3266
20
-107,3668
30
-452,9545
11
-121,3266
21
-107,3668
31
-413,0709
0
LINE
8
0
10
-121,3266
20
-107,3668
30
-413,0709
11
-378,6733
21
-107,3668
31
-413,0709
0
LINE
8
0
10
-378,6733
20
-107,3668
30
-413,0709
11
-378,6733
21
-107,3668
31
-452,9545
0
LINE
8
0
10
-377,9553
20
-405,9313
30
-441,2076
11
-122,0447
21
-405,9313
31
-441,2076
0
LINE
8
0
10
-122,0447
20
-405,9313
30
-441,2076
11
-122,0447
21
-94,0687
31
-441,2076
0
LINE
8
0
10
-122,0447
20
-94,0687
30
-441,2076
11
-377,9553
21
-94,0687
31
-441,2076
0
LINE
8
0
10
-377,9553
20
-94,0687
30
-441,2076
11
-377,9553
21
-405,9313
31
-441,2076
0
LINE
8
0
10
-122,0447
20
-405,9313
30
-441,2076
11
-122,0447
21
-405,9313
31
-424,8178
0
LINE
8
0
10
-122,0447
20
-405,9313
30
-424,8178
11
-122,0447
21
-94,0687
31
-424,8178
0
LINE
8
0
10
-122,0447
20
-94,0687
30
-424,8178
11
-122,0447
21
-94,0687
31
-441,2076
0
LINE
8
0
10
-122,0447
20
-94,0687
30
-441,2076
11
-122,0447
21
-405,9313
31
-441,2076
0
LINE
8
0
10
-122,0447
20
-405,9313
30
-424,8178
11
-377,9553
21
-405,9313
31
-424,8178
0
LINE
8
0
10
-377,9553
20
-405,9313
30
-424,8178
11
-377,9553
21
-94,0687
31
-424,8178
0
LINE
8
0
10
-377,9553
20
-94,0687
30
-424,8178
11
-122,0447
21
-94,0687
31
-424,8178
0
LINE
8
0
10
-122,0447
20
-94,0687
30
-424,8178
11
-122,0447
21
-405,9313
31
-424,8178
0
LINE
8
0
10
-377,9553
20
-405,9313
30
-424,8178
11
-377,9553
21
-405,9313
31
-441,2076
0
LINE
8
0
10
-377,9553
20
-405,9313
30
-441,2076
11
-377,9553
21
-94,0687
31
-441,2076
0
LINE
8
0
10
-377,9553
20
-94,0687
30
-441,2076
11
-377,9553
21
-94,0687
31
-424,8178
0
LINE
8
0
10
-377,9553
20
-94,0687
30
-424,8178
11
-377,9553
21
-405,9313
31
-424,8178
0
LINE
8
0
10
-377,9553
20
-405,9313
30
-424,8178
11
-122,0447
21
-405,9313
31
-424,8178
0
LINE
8
0
10
-122,0447
20
-405,9313
30
-424,8178
11
-122,0447
21
-405,9313
31
-441,2076
0
LINE
8
0
10
-122,0447
20
-405,9313
30
-441,2076
11
-377,9553
21
-405,9313
31
-441,2076
0
LINE
8
0
10
-377,9553
20
-405,9313
30
-441,2076
11
-377,9553
21
-405,9313
31
-424,8178
0
LINE
8
0
10
-377,9553
20
-94,0687
30
-441,2076
11
-122,0447
21
-94,0687
31
-441,2076
0
LINE
8
0
10
-122,0447
20
-94,0687
30
-441,2076
11
-122,0447
21
-94,0687
31
-424,8178
0
LINE
8
0
10
-122,0447
20
-94,0687
30
-424,8178
11
-377,9553
21
-94,0687
31
-424,8178
0
LINE
8
0
10
-377,9553
20
-94,0687
30
-424,8178
11
-377,9553
21
-94,0687
31
-441,2076
0
LINE
8
0
10
-417,5214
20
-417,9027
30
-459,9209
11
-82,4786
21
-417,9027
31
-459,9209
0
LINE
8
0
10
-82,4786
20
-417,9027
30
-459,9209
11
-82,4786
21
-82,0973
31
-459,9209
0
LINE
8
0
10
-82,4786
20
-82,0973
30
-459,9209
11
-417,5214
21
-82,0973
31
-459,9209
0
LINE
8
0
10
-417,5214
20
-82,0973
30
-459,9209
11
-417,5214
21
-417,9027
31
-459,9209
0
LINE
8
0
10
-82,4786
20
-417,9027
30
-459,9209
11
-82,4786
21
-417,9027
31
-406,1045
0
LINE
8
0
10
-82,4786
20
-417,9027
30
-406,1045
11
-82,4786
21
-82,0973
31
-406,1045
0
LINE
8
0
10
-82,4786
20
-82,0973
30
-406,1045
11
-82,4786
21
-82,0973
31
-459,9209
0
LINE
8
0
10
-82,4786
20
-82,0973
30
-459,9209
11
-82,4786
21
-417,9027
31
-459,9209
0
LINE
8
0
10
-82,4786
20
-417,9027
30
-406,1045
11
-417,5214
21
-417,9027
31
-406,1045
0
LINE
8
0
10
-417,5214
20
-417,9027
30
-406,1045
11
-417,5214
21
-82,0973
31
-406,1045
0
LINE
8
0
10
-417,5214
20
-82,0973
30
-406,1045
11
-82,4786
21
-82,0973
31
-406,1045
0
LINE
8
0
10
-82,4786
20
-82,0973
30
-406,1045
11
-82,4786
21
-417,9027
31
-406,1045
0
LINE
8
0
10
-417,5214
20
-417,9027
30
-406,1045
11
-417,5214
21
-417,9027
31
-459,9209
0
LINE
8
0
10
-417,5214
20
-417,9027
30
-459,9209
11
-417,5214
21
-82,0973
31
-459,9209
0
LINE
8
0
10
-417,5214
20
-82,0973
30
-459,9209
11
-417,5214
21
-82,0973
31
-406,1045
0
LINE
8
0
10
-417,5214
20
-82,0973
30
-406,1045
11
-417,5214
21
-417,9027
31
-406,1045
0
LINE
8
0
10
-417,5214
20
-417,9027
30
-406,1045
11
-82,4786
21
-417,9027
31
-406,1045
0
LINE
8
0
10
-82,4786
20
-417,9027
30
-406,1045
11
-82,4786
21
-417,9027
31
-459,9209
0
LINE
8
0
10
-82,4786
20
-417,9027
30
-459,9209
11
-417,5214
21
-417,9027
31
-459,9209
0
LINE
8
0
10
-417,5214
20
-417,9027
30
-459,9209
11
-417,5214
21
-417,9027
31
-406,1045
0
LINE
8
0
10
-417,5214
20
-82,0973
30
-459,9209
11
-82,4786
21
-82,0973
31
-459,9209
0
LINE
8
0
10
-82,4786
20
-82,0973
30
-459,9209
11
-82,4786
21
-82,0973
31
-406,1045
0
LINE
8
0
10
-82,4786
20
-82,0973
30
-406,1045
11
-417,5214
21
-82,0973
31
-406,1045
0
LINE
8
0
10
-417,5214
20
-82,0973
30
-406,1045
11
-417,5214
21
-82,0973
31
-459,9209
0
LINE
8
0
10
-422,9935
20
-402,8217
30
-467,1669
11
-77,0065
21
-402,8217
31
-467,1669
0
LINE
8
0
10
-77,0065
20
-402,8217
30
-467,1669
11
-77,0065
21
-97,1783
31
-467,1669
0
LINE
8
0
10
-77,0065
20
-97,1783
30
-467,1669
11
-422,9935
21
-97,1783
31
-467,1669
0
LINE
8
0
10
-422,9935
20
-97,1783
30
-467,1669
11
-422,9935
21
-402,8217
31
-467,1669
0
LINE
8
0
10
-77,0065
20
-402,8217
30
-467,1669
11
-77,0065
21
-402,8217
31
-398,8585
0
LINE
8
0
10
-77,0065
20
-402,8217
30
-398,8585
11
-77,0065
21
-97,1783
31
-398,8585
0
LINE
8
0
10
-77,0065
20
-97,1783
30
-398,8585
11
-77,0065
21
-97,1783
31
-467,1669
0
LINE
8
0
10
-77,0065
20
-97,1783
30
-467,1669
11
-77,0065
21
-402,8217
31
-467,1669
0
LINE
8
0
10
-77,0065
20
-402,8217
30
-398,8585
11
-422,9935
21
-402,8217
31
-398,8585
0
LINE
8
0
10
-422,9935
20
-402,8217
30
-398,8585
11
-422,9935
21
-97,1783
31
-398,8585
0
LINE
8
0
10
-422,9935
20
-97,1783
30
-398,8585
11
-77,0065
21
-97,1783
31
-398,8585
0
LINE
8
0
10
-77,0065
20
-97,1783
30
-398,8585
11
-77,0065
21
-402,8217
31
-398,8585
0
LINE
8
0
10
-422,9935
20
-402,8217
30
-398,8585
11
-422,9935
21
-402,8217
31
-467,1669
0
LINE
8
0
10
-422,9935
20
-402,8217
30
-467,1669
11
-422,9935
21
-97,1783
31
-467,1669
0
LINE
8
0
10
-422,9935
20
-97,1783
30
-467,1669
11
-422,9935
21
-97,1783
31
-398,8585
0
LINE
8
0
10
-422,9935
20
-97,1783
30
-398,8585
11
-422,9935
21
-402,8217
31
-398,8585
0
LINE
8
0
10
-422,9935
20
-402,8217
30
-398,8585
11
-77,0065
21
-402,8217
31
-398,8585
0
LINE
8
0
10
-77,0065
20
-402,8217
30
-398,8585
11
-77,0065
21
-402,8217
31
-467,1669
0
LINE
8
0
10
-77,0065
20
-402,8217
30
-467,1669
11
-422,9935
21
-402,8217
31
-467,1669
0
LINE
8
0
10
-422,9935
20
-402,8217
30
-467,1669
11
-422,9935
21
-402,8217
31
-398,8585
0
LINE
8
0
10
-422,9935
20
-97,1783
30
-467,1669
11
-77,0065
21
-97,1783
31
-467,1669
0
LINE
8
0
10
-77,0065
20
-97,1783
30
-467,1669
11
-77,0065
21
-97,1783
31
-398,8585
0
LINE
8
0
10
-77,0065
20
-97,1783
30
-398,8585
11
-422,9935
21
-97,1783
31
-398,8585
0
LINE
8
0
10
-422,9935
20
-97,1783
30
-398,8585
11
-422,9935
21
-97,1783
31
-467,1669
0
LINE
8
0
10
-434,1894
20
-392,2850
30
-444,7591
11
-65,8106
21
-392,2850
31
-444,7591
0
LINE
8
0
10
-65,8106
20
-392,2850
30
-444,7591
11
-65,8106
21
-107,7150
31
-444,7591
0
LINE
8
0
10
-65,8106
20
-107,7150
30
-444,7591
11
-434,1894
21
-107,7150
31
-444,7591
0
LINE
8
0
10
-434,1894
20
-107,7150
30
-444,7591
11
-434,1894
21
-392,2850
31
-444,7591
0
LINE
8
0
10
-65,8106
20
-392,2850
30
-444,7591
11
-65,8106
21
-392,2850
31
-421,2663
0
LINE
8
0
10
-65,8106
20
-392,2850
30
-421,2663
11
-65,8106
21
-107,7150
31
-421,2663
0
LINE
8
0
10
-65,8106
20
-107,7150
30
-421,2663
11
-65,8106
21
-107,7150
31
-444,7591
0
LINE
8
0
10
-65,8106
20
-107,7150
30
-444,7591
11
-65,8106
21
-392,2850
31
-444,7591
0
LINE
8
0
10
-65,8106
20
-392,2850
30
-421,2663
11
-434,1894
21
-392,2850
31
-421,2663
0
LINE
8
0
10
-434,1894
20
-392,2850
30
-421,2663
11
-434,1894
21
-107,7150
31
-421,2663
0
LINE
8
0
10
-434,1894
20
-107,7150
30
-421,2663
11
-65,8106
21
-107,7150
31
-421,2663
0
LINE
8
0
10
-65,8106
20
-107,7150
30
-421,2663
11
-65,8106
21
-392,2850
31
-421,2663
0
LINE
8
0
10
-434,1894
20
-392,2850
30
-421,2663
11
-434,1894
21
-392,2850
31
-444,7591
0
LINE
8
0
10
-434,1894
20
-392,2850
30
-444,7591
11
-434,1894
21
-107,7150
31
-444,7591
0
LINE
8
0
10
-434,1894
20
-107,7150
30
-444,7591
11
-434,1894
21
-107,7150
31
-421,2663
0
LINE
8
0
10
-434,1894
20
-107,7150
30
-421,2663
11
-434,1894
21
-392,2850
31
-421,2663
0
LINE
8
0
10
-434,1894
20
-392,2850
30
-421,2663
11
-65,8106
21
-392,2850
31
-421,2663
0
LINE
8
0
10
-65,8106
20
-392,2850
30
-421,2663
11
-65,8106
21
-392,2850
31
-444,7591
0
LINE
8
0
10
-65,8106
20
-392,2850
30
-444,7591
11
-434,1894
21
-392,2850
31
-444,7591
0
LINE
8
0
10
-434,1894
20
-392,2850
30
-444,7591
11
-434,1894
21
-392,2850
31
-421,2663
0
LINE
8
0
10
-434,1894
20
-107,7150
30
-444,7591
11
-65,8106
21
-107,7150
31
-444,7591
0
LINE
8
0
10
-65,8106
20
-107,7150
30
-444,7591
11
-65,8106
21
-107,7150
31
-421,2663
0
LINE
8
0
10
-65,8106
20
-107,7150
30
-421,2663
11
-434,1894
21
-107,7150
31
-421,2663
0
LINE
8
0
10
-434,1894
20
-107,7150
30
-421,2663
11
-434,1894
21
-107,7150
31
-444,7591
0
LINE
8
0
10
-379,5092
20
-378,9000
30
-470,6548
11
-120,4908
21
-378,9000
31
-470,6548
0
LINE
8
0
10
-120,4908
20
-378,9000
30
-470,6548
11
-120,4908
21
-121,1000
31
-470,6548
0
LINE
8
0
10
-120,4908
20
-121,1000
30
-470,6548
11
-379,5092
21
-121,1000
31
-470,6548
0
LINE
8
0
10
-379,5092
20
-121,1000
30
-470,6548
11
-379,5092
21
-378,9000
31
-470,6548
0
LINE
8
0
10
-120,4908
20
-378,9000
30
-470,6548
11
-120,4908
21
-378,9000
31
-395,3706
0
LINE
8
0
10
-120,4908
20
-378,9000
30
-395,3706
11
-120,4908
21
-121,1000
31
-395,3706
0
LINE
8
0
10
-120,4908
20
-121,1000
30
-395,3706
11
-120,4908
21
-121,1000
31
-470,6548
0
LINE
8
0
10
-120,4908
20
-121,1000
30
-470,6548
11
-120,4908
21
-378,9000
31
-470,6548
0
LINE
8
0
10
-120,4908
20
-378,9000
30
-395,3706
11
-379,5092
21
-378,9000
31
-395,3706
0
LINE
8
0
10
-379,5092
20
-378,9000
30
-395,3706
11
-379,5092
21
-121,1000
31
-395,3706
0
LINE
8
0
10
-379,5092
20
-121,1000
30
-395,3706
11
-120,4908
21
-121,1000
31
-395,3706
0
LINE
8
0
10
-120,4908
20
-121,1000
30
-395,3706
11
-120,4908
21
-378,9000
31
-395,3706
0
LINE
8
0
10
-379,5092
20
-378,9000
30
-395,3706
11
-379,5092
21
-378,9000
31
-470,6548
0
LINE
8
0
10
-379,5092
20
-378,9000
30
-470,6548
11
-379,5092
21
-121,1000
31
-470,6548
0
LINE
8
0
10
-379,5092
20
-121,1000
30
-470,6548
11
-379,5092
21
-121,1000
31
-395,3706
0
LINE
8
0
10
-379,5092
20
-121,1000
30
-395,3706
11
-379,5092
21
-378,9000
31
-395,3706
0
LINE
8
0
10
-379,5092
20
-378,9000
30
-395,3706
11
-120,4908
21
-378,9000
31
-395,3706
0
LINE
8
0
10
-120,4908
20
-378,9000
30
-395,3706
11
-120,4908
21
-378,9000
31
-470,6548
0
LINE
8
0
10
-120,4908
20
-378,9000
30
-470,6548
11
-379,5092
21
-378,9000
31
-470,6548
0
LINE
8
0
10
-379,5092
20
-378,9000
30
-470,6548
11
-379,5092
21
-378,9000
31
-395,3706
0
LINE
8
0
10
-379,5092
20
-121,1000
30
-470,6548
11
-120,4908
21
-121,1000
31
-470,6548
0
LINE
8
0
10
-120,4908
20
-121,1000
30
-470,6548
11
-120,4908
21
-121,1000
31
-395,3706
0
LINE
8
0
10
-120,4908
20
-121,1000
30
-395,3706
11
-379,5092
21
-121,1000
31
-395,3706
0
LINE
8
0
10
-379,5092
20
-121,1000
30
-395,3706
11
-379,5092
21
-121,1000
31
-470,6548
0
LINE
8
0
10
-401,6031
20
-393,9192
30
-463,2244
11
-98,3969
21
-393,9192
31
-463,2244
0
LINE
8
0
10
-98,3969
20
-393,9192
30
-463,2244
11
-98,3969
21
-106,0808
31
-463,2244
0
LINE
8
0
10
-98,3969
20
-106,0808
30
-463,2244
11
-401,6031
21
-106,0808
31
-463,2244
0
LINE
8
0
10
-401,6031
20
-106,0808
30
-463,2244
11
-401,6031
21
-393,9192
31
-463,2244
0
LINE
8
0
10
-98,3969
20
-393,9192
30
-463,2244
11
-98,3969
21
-393,9192
31
-402,8010
0
LINE
8
0
10
-98,3969
20
-393,9192
30
-402,8010
11
-98,3969
21
-106,0808
31
-402,8010
0
LINE
8
0
10
-98,3969
20
-106,0808
30
-402,8010
11
-98,3969
21
-106,0808
31
-463,2244
0
LINE
8
0
10
-98,3969
20
-106,0808
30
-463,2244
11
-98,3969
21
-393,9192
31
-463,2244
0
LINE
8
0
10
-98,3969
20
-393,9192
30
-402,8010
11
-401,6031
21
-393,9192
31
-402,8010
0
LINE
8
0
10
-401,6031
20
-393,9192
30
-402,8010
11
-401,6031
21
-106,0808
31
-402,8010
0
LINE
8
0
10
-401,6031
20
-106,0808
30
-402,8010
11
-98,3969
21
-106,0808
31
-402,8010
0
LINE
8
0
10
-98,3969
20
-106,0808
30
-402,8010
11
-98,3969
21
-393,9192
31
-402,8010
0
LINE
8
0
10
-401,6031
20
-393,9192
30
-402,8010
11
-401,6031
21
-393,9192
31
-463,2244
0
LINE
8
0
10
-401,6031
20
-393,9192
30
-463,2244
11
-401,6031
21
-106,0808
31
-463,2244
0
LINE
8
0
10
-401,6031
20
-106,0808
30
-463,2244
11
-401,6031
21
-106,0808
31
-402,8010
0
LINE
8
0
10
-401,6031
20
-106,0808
30
-402,8010
11
-401,6031
21
-393,9192
31
-402,8010
0
LINE
8
0
10
-401,6031
20
-393,9192
30
-402,8010
11
-98,3969
21
-393,9192
31
-402,8010
0
LINE
8
0
10
-98,3969
20
-393,9192
30
-402,8010
11
-98,3969
21
-393,9192
31
-463,2244
0
LINE
8
0
10
-98,3969
20
-393,9192
30
-463,2244
11
-401,6031
21
-393,9192
31
-463,2244
0
LINE
8
0
10
-401,6031
20
-393,9192
30
-463,2244
11
-401,6031
21
-393,9192
31
-402,8010
0
LINE
8
0
10
-401,6031
20
-106,0808
30
-463,2244
11
-98,3969
21
-106,0808
31
-463,2244
0
LINE
8
0
10
-98,3969
20
-106,0808
30
-463,2244
11
-98,3969
21
-106,0808
31
-402,8010
0
LINE
8
0
10
-98,3969
20
-106,0808
30
-402,8010
11
-401,6031
21
-106,0808
31
-402,8010
0
LINE
8
0
10
-401,6031
20
-106,0808
30
-402,8010
11
-401,6031
21
-106,0808
31
-463,2244
0
LINE
8
0
10
-454,4791
20
-387,1147
30
-508,8742
11
-45,5209
21
-387,1147
31
-508,8742
0
LINE
8
0
10
-45,5209
20
-387,1147
30
-508,8742
11
-45,5209
21
-112,8853
31
-508,8742
0
LINE
8
0
10
-45,5209
20
-112,8853
30
-508,8742
11
-454,4791
21
-112,8853
31
-508,8742
0
LINE
8
0
10
-454,4791
20
-112,8853
30
-508,8742
11
-454,4791
21
-387,1147
31
-508,8742
0
LINE
8
0
10
-45,5209
20
-387,1147
30
-508,8742
11
-45,5209
21
-387,1147
31
-357,1512
0
LINE
8
0
10
-45,5209
20
-387,1147
30
-357,1512
11
-45,5209
21
-112,8853
31
-357,1512
0
LINE
8
0
10
-45,5209
20
-112,8853
30
-357,1512
11
-45,5209
21
-112,8853
31
-508,8742
0
LINE
8
0
10
-45,5209
20
-112,8853
30
-508,8742
11
-45,5209
21
-387,1147
31
-508,8742
0
LINE
8
0
10
-45,5209
20
-387,1147
30
-357,1512
11
-454,4791
21
-387,1147
31
-357,1512
0
LINE
8
0
10
-454,4791
20
-387,1147
30
-357,1512
11
-454,4791
21
-112,8853
31
-357,1512
0
LINE
8
0
10
-454,4791
20
-112,8853
30
-357,1512
11
-45,5209
21
-112,8853
31
-357,1512
0
LINE
8
0
10
-45,5209
20
-112,8853
30
-357,1512
11
-45,5209
21
-387,1147
31
-357,1512
0
LINE
8
0
10
-454,4791
20
-387,1147
30
-357,1512
11
-454,4791
21
-387,1147
31
-508,8742
0
LINE
8
0
10
-454,4791
20
-387,1147
30
-508,8742
11
-454,4791
21
-112,8853
31
-508,8742
0
LINE
8
0
10
-454,4791
20
-112,8853
30
-508,8742
11
-454,4791
21
-112,8853
31
-357,1512
0
LINE
8
0
10
-454,4791
20
-112,8853
30
-357,1512
11
-454,4791
21
-387,1147
31
-357,1512
0
LINE
8
0
10
-454,4791
20
-387,1147
30
-357,1512
11
-45,5209
21
-387,1147
31
-357,1512
0
LINE
8
0
10
-45,5209
20
-387,1147
30
-357,1512
11
-45,5209
21
-387,1147
31
-508,8742
0
LINE
8
0
10
-45,5209
20
-387,1147
30
-508,8742
11
-454,4791
21
-387,1147
31
-508,8742
0
LINE
8
0
10
-454,4791
20
-387,1147
30
-508,8742
11
-454,4791
21
-387,1147
31
-357,1512
0
LINE
8
0
10
-454,4791
20
-112,8853
30
-508,8742
11
-45,5209
21
-112,8853
31
-508,8742
0
LINE
8
0
10
-45,5209
20
-112,8853
30
-508,8742
11
-45,5209
21
-112,8853
31
-357,1512
0
LINE
8
0
10
-45,5209
20
-112,8853
30
-357,1512
11
-454,4791
21
-112,8853
31
-357,1512
0
LINE
8
0
10
-454,4791
20
-112,8853
30
-357,1512
11
-454,4791
21
-112,8853
31
-508,8742
0
LINE
8
0
10
-402,5405
20
-425,6404
30
-483,8148
11
-97,4595
21
-425,6404
31
-483,8148
0
LINE
8
0
10
-97,4595
20
-425,6404
30
-483,8148
11
-97,4595
21
-74,3596
31
-483,8148
0
LINE
8
0
10
-97,4595
20
-74,3596
30
-483,8148
11
-402,5405
21
-74,3596
31
-483,8148
0
LINE
8
0
10
-402,5405
20
-74,3596
30
-483,8148
11
-402,5405
21
-425,6404
31
-483,8148
0
LINE
8
0
10
-97,4595
20
-425,6404
30
-483,8148
11
-97,4595
21
-425,6404
31
-382,2106
0
LINE
8
0
10
-97,4595
20
-425,6404
30
-382,2106
11
-97,4595
21
-74,3596
31
-382,2106
0
LINE
8
0
10
-97,4595
20
-74,3596
30
-382,2106
11
-97,4595
21
-74,3596
31
-483,8148
0
LINE
8
0
10
-97,4595
20
-74,3596
30
-483,8148
11
-97,4595
21
-425,6404
31
-483,8148
0
LINE
8
0
10
-97,4595
20
-425,6404
30
-382,2106
11
-402,5405
21
-425,6404
31
-382,2106
0
LINE
8
0
10
-402,5405
20
-425,6404
30
-382,2106
11
-402,5405
21
-74,3596
31
-382,2106
0
LINE
8
0
10
-402,5405
20
-74,3596
30
-382,2106
11
-97,4595
21
-74,3596
31
-382,2106
0
LINE
8
0
10
-97,4595
20
-74,3596
30
-382,2106
11
-97,4595
21
-425,6404
31
-382,2106
0
LINE
8
0
10
-402,5405
20
-425,6404
30
-382,2106
11
-402,5405
21
-425,6404
31
-483,8148
0
LINE
8
0
10
-402,5405
20
-425,6404
30
-483,8148
11
-402,5405
21
-74,3596
31
-483,8148
0
LINE
8
0
10
-402,5405
20
-74,3596
30
-483,8148
11
-402,5405
21
-74,3596
31
-382,2106
0
LINE
8
0
10
-402,5405
20
-74,3596
30
-382,2106
11
-402,5405
21
-425,6404
31
-382,2106
0
LINE
8
0
10
-402,5405
20
-425,6404
30
-382,2106
11
-97,4595
21
-425,6404
31
-382,2106
0
LINE
8
0
10
-97,4595
20
-425,6404
30
-382,2106
11
-97,4595
21
-425,6404
31
-483,8148
0
LINE
8
0
10
-97,4595
20
-425,6404
30
-483,8148
11
-402,5405
21
-425,6404
31
-483,8148
0
LINE
8
0
10
-402,5405
20
-425,6404
30
-483,8148
11
-402,5405
21
-425,6404
31
-382,2106
0
LINE
8
0
10
-402,5405
20
-74,3596
30
-483,8148
11
-97,4595
21
-74,3596
31
-483,8148
0
LINE
8
0
10
-97,4595
20
-74,3596
30
-483,8148
11
-97,4595
21
-74,3596
31
-382,2106
0
LINE
8
0
10
-97,4595
20
-74,3596
30
-382,2106
11
-402,5405
21
-74,3596
31
-382,2106
0
LINE
8
0
10
-402,5405
20
-74,3596
30
-382,2106
11
-402,5405
21
-74,3596
31
-483,8148
0
LINE
8
0
10
-393,2213
20
-407,9171
30
-522,7094
11
-106,7787
21
-407,9171
31
-522,7094
0
LINE
8
0
10
-106,7787
20
-407,9171
30
-522,7094
11
-106,7787
21
-92,0829
31
-522,7094
0
LINE
8
0
10
-106,7787
20
-92,0829
30
-522,7094
11
-393,2213
21
-92,0829
31
-522,7094
0
LINE
8
0
10
-393,2213
20
-92,0829
30
-522,7094
11
-393,2213
21
-407,9171
31
-522,7094
0
LINE
8
0
10
-106,7787
20
-407,9171
30
-522,7094
11
-106,7787
21
-407,9171
31
-343,3160
0
LINE
8
0
10
-106,7787
20
-407,9171
30
-343,3160
11
-106,7787
21
-92,0829
31
-343,3160
0
LINE
8
0
10
-106,7787
20
-92,0829
30
-343,3160
11
-106,7787
21
-92,0829
31
-522,7094
0
LINE
8
0
10
-106,7787
20
-92,0829
30
-522,7094
11
-106,7787
21
-407,9171
31
-522,7094
0
LINE
8
0
10
-106,7787
20
-407,9171
30
-343,3160
11
-393,2213
21
-407,9171
31
-343,3160
0
LINE
8
0
10
-393,2213
20
-407,9171
30
-343,3160
11
-393,2213
21
-92,0829
31
-343,3160
0
LINE
8
0
10
-393,2213
20
-92,0829
30
-343,3160
11
-106,7787
21
-92,0829
31
-343,3160
0
LINE
8
0
10
-106,7787
20
-92,0829
30
-343,3160
11
-106,7787
21
-407,9171
31
-343,3160
0
LINE
8
0
10
-393,2213
20
-407,9171
30
-343,3160
11
-393,2213
21
-407,9171
31
-522,7094
0
LINE
8
0
10
-393,2213
20
-407,9171
30
-522,7094
11
-393,2213
21
-92,0829
31
-522,7094
0
LINE
8
0
10
-393,2213
20
-92,0829
30
-522,7094
11
-393,2213
21
-92,0829
31
-343,3160
0
LINE
8
0
10
-393,2213
20
-92,0829
30
-343,3160
11
-393,2213
21
-407,9171
31
-343,3160
0
LINE
8
0
10
-393,2213
20
-407,9171
30
-343,3160
11
-106,7787
21
-407,9171
31
-343,3160
0
LINE
8
0
10
-106,7787
20
-407,9171
30
-343,3160
11
-106,7787
21
-407,9171
31
-522,7094
0
LINE
8
0
10
-106,7787
20
-407,9171
30
-522,7094
11
-393,2213
21
-407,9171
31
-522,7094
0
LINE
8
0
10
-393,2213
20
-407,9171
30
-522,7094
11
-393,2213
21
-407,9171
31
-343,3160
0
LINE
8
0
10
-393,2213
20
-92,0829
30
-522,7094
11
-106,7787
21
-92,0829
31
-522,7094
0
LINE
8
0
10
-106,7787
20
-92,0829
30
-522,7094
11
-106,7787
21
-92,0829
31
-343,3160
0
LINE
8
0
10
-106,7787
20
-92,0829
30
-343,3160
11
-393,2213
21
-92,0829
31
-343,3160
0
LINE
8
0
10
-393,2213
20
-92,0829
30
-343,3160
11
-393,2213
21
-92,0829
31
-522,7094
0
LINE
8
0
10
-479,0674
20
-399,5682
30
-501,0589
11
-20,9325
21
-399,5682
31
-501,0589
0
LINE
8
0
10
-20,9325
20
-399,5682
30
-501,0589
11
-20,9325
21
-100,4317
31
-501,0589
0
LINE
8
0
10
-20,9325
20
-100,4317
30
-501,0589
11
-479,0674
21
-100,4317
31
-501,0589
0
LINE
8
0
10
-479,0674
20
-100,4317
30
-501,0589
11
-479,0674
21
-399,5682
31
-501,0589
0
LINE
8
0
10
-20,9325
20
-399,5682
30
-501,0589
11
-20,9325
21
-399,5682
31
-364,9665
0
LINE
8
0
10
-20,9325
20
-399,5682
30
-364,9665
11
-20,9325
21
-100,4317
31
-364,9665
0
LINE
8
0
10
-20,9325
20
-100,4317
30
-364,9665
11
-20,9325
21
-100,4317
31
-501,0589
0
LINE
8
0
10
-20,9325
20
-100,4317
30
-501,0589
11
-20,9325
21
-399,5682
31
-501,0589
0
LINE
8
0
10
-20,9325
20
-399,5682
30
-364,9665
11
-479,0674
21
-399,5682
31
-364,9665
0
LINE
8
0
10
-479,0674
20
-399,5682
30
-364,9665
11
-479,0674
21
-100,4317
31
-364,9665
0
LINE
8
0
10
-479,0674
20
-100,4317
30
-364,9665
11
-20,9325
21
-100,4317
31
-364,9665
0
LINE
8
0
10
-20,9325
20
-100,4317
30
-364,9665
11
-20,9325
21
-399,5682
31
-364,9665
0
LINE
8
0
10
-479,0674
20
-399,5682
30
-364,9665
11
-479,0674
21
-399,5682
31
-501,0589
0
LINE
8
0
10
-479,0674
20
-399,5682
30
-501,0589
11
-479,0674
21
-100,4317
31
-501,0589
0
LINE
8
0
10
-479,0674
20
-100,4317
30
-501,0589
11
-479,0674
21
-100,4317
31
-364,9665
0
LINE
8
0
10
-479,0674
20
-100,4317
30
-364,9665
11
-479,0674
21
-399,5682
31
-364,9665
0
LINE
8
0
10
-479,0674
20
-399,5682
30
-364,9665
11
-20,9325
21
-399,5682
31
-364,9665
0
LINE
8
0
10
-20,9325
20
-399,5682
30
-364,9665
11
-20,9325
21
-399,5682
31
-501,0589
0
LINE
8
0
10
-20,9325
20
-399,5682
30
-501,0589
11
-479,0674
21
-399,5682
31
-501,0589
0
LINE
8
0
10
-479,0674
20
-399,5682
30
-501,0589
11
-479,0674
21
-399,5682
31
-364,9665
0
LINE
8
0
10
-479,0674
20
-100,4317
30
-501,0589
11
-20,9325
21
-100,4317
31
-501,0589
0
LINE
8
0
10
-20,9325
20
-100,4317
30
-501,0589
11
-20,9325
21
-100,4317
31
-364,9665
0
LINE
8
0
10
-20,9325
20
-100,4317
30
-364,9665
11
-479,0674
21
-100,4317
31
-364,9665
0
LINE
8
0
10
-479,0674
20
-100,4317
30
-364,9665
11
-479,0674
21
-100,4317
31
-501,0589
0
LINE
8
0
10
-386,7455
20
-378,8481
30
-495,2631
11
-113,2545
21
-378,8481
31
-495,2631
0
LINE
8
0
10
-113,2545
20
-378,8481
30
-495,2631
11
-113,2545
21
-121,1519
31
-495,2631
0
LINE
8
0
10
-113,2545
20
-121,1519
30
-495,2631
11
-386,7455
21
-121,1519
31
-495,2631
0
LINE
8
0
10
-386,7455
20
-121,1519
30
-495,2631
11
-386,7455
21
-378,8481
31
-495,2631
0
LINE
8
0
10
-113,2545
20
-378,8481
30
-495,2631
11
-113,2545
21
-378,8481
31
-370,7623
0
LINE
8
0
10
-113,2545
20
-378,8481
30
-370,7623
11
-113,2545
21
-121,1519
31
-370,7623
0
LINE
8
0
10
-113,2545
20
-121,1519
30
-370,7623
11
-113,2545
21
-121,1519
31
-495,2631
0
LINE
8
0
10
-113,2545
20
-121,1519
30
-495,2631
11
-113,2545
21
-378,8481
31
-495,2631
0
LINE
8
0
10
-113,2545
20
-378,8481
30
-370,7623
11
-386,7455
21
-378,8481
31
-370,7623
0
LINE
8
0
10
-386,7455
20
-378,8481
30
-370,7623
11
-386,7455
21
-121,1519
31
-370,7623
0
LINE
8
0
10
-386,7455
20
-121,1519
30
-370,7623
11
-113,2545
21
-121,1519
31
-370,7623
0
LINE
8
0
10
-113,2545
20
-121,1519
30
-370,7623
11
-113,2545
21
-378,8481
31
-370,7623
0
LINE
8
0
10
-386,7455
20
-378,8481
30
-370,7623
11
-386,7455
21
-378,8481
31
-495,2631
0
LINE
8
0
10
-386,7455
20
-378,8481
30
-495,2631
11
-386,7455
21
-121,1519
31
-495,2631
0
LINE
8
0
10
-386,7455
20
-121,1519
30
-495,2631
11
-386,7455
21
-121,1519
31
-370,7623
0
LINE
8
0
10
-386,7455
20
-121,1519
30
-370,7623
11
-386,7455
21
-378,8481
31
-370,7623
0
LINE
8
0
10
-386,7455
20
-378,8481
30
-370,7623
11
-113,2545
21
-378,8481
31
-370,7623
0
LINE
8
0
10
-113,2545
20
-378,8481
30
-370,7623
11
-113,2545
21
-378,8481
31
-495,2631
0
LINE
8
0
10
-113,2545
20
-378,8481
30
-495,2631
11
-386,7455
21
-378,8481
31
-495,2631
0
LINE
8
0
10
-386,7455
20
-378,8481
30
-495,2631
11
-386,7455
21
-378,8481
31
-370,7623
0
LINE
8
0
10
-386,7455
20
-121,1519
30
-495,2631
11
-113,2545
21
-121,1519
31
-495,2631
0
LINE
8
0
10
-113,2545
20
-121,1519
30
-495,2631
11
-113,2545
21
-121,1519
31
-370,7623
0
LINE
8
0
10
-113,2545
20
-121,1519
30
-370,7623
11
-386,7455
21
-121,1519
31
-370,7623
0
LINE
8
0
10
-386,7455
20
-121,1519
30
-370,7623
11
-386,7455
21
-121,1519
31
-495,2631
0
LINE
8
0
10
-434,7639
20
-448,9201
30
-521,5857
11
-65,2361
21
-448,9201
31
-521,5857
0
LINE
8
0
10
-65,2361
20
-448,9201
30
-521,5857
11
-65,2361
21
-51,0799
31
-521,5857
0
LINE
8
0
10
-65,2361
20
-51,0799
30
-521,5857
11
-434,7639
21
-51,0799
31
-521,5857
0
LINE
8
0
10
-434,7639
20
-51,0799
30
-521,5857
11
-434,7639
21
-448,9201
31
-521,5857
0
LINE
8
0
10
-65,2361
20
-448,9201
30
-521,5857
11
-65,2361
21
-448,9201
31
-344,4397
0
LINE
8
0
10
-65,2361
20
-448,9201
30
-344,4397
11
-65,2361
21
-51,0799
31
-344,4397
0
LINE
8
0
10
-65,2361
20
-51,0799
30
-344,4397
11
-65,2361
21
-51,0799
31
-521,5857
0
LINE
8
0
10
-65,2361
20
-51,0799
30
-521,5857
11
-65,2361
21
-448,9201
31
-521,5857
0
LINE
8
0
10
-65,2361
20
-448,9201
30
-344,4397
11
-434,7639
21
-448,9201
31
-344,4397
0
LINE
8
0
10
-434,7639
20
-448,9201
30
-344,4397
11
-434,7639
21
-51,0799
31
-344,4397
0
LINE
8
0
10
-434,7639
20
-51,0799
30
-344,4397
11
-65,2361
21
-51,0799
31
-344,4397
0
LINE
8
0
10
-65,2361
20
-51,0799
30
-344,4397
11
-65,2361
21
-448,9201
31
-344,4397
0
LINE
8
0
10
-434,7639
20
-448,9201
30
-344,4397
11
-434,7639
21
-448,9201
31
-521,5857
0
LINE
8
0
10
-434,7639
20
-448,9201
30
-521,5857
11
-434,7639
21
-51,0799
31
-521,5857
0
LINE
8
0
10
-434,7639
20
-51,0799
30
-521,5857
11
-434,7639
21
-51,0799
31
-344,4397
0
LINE
8
0
10
-434,7639
20
-51,0799
30
-344,4397
11
-434,7639
21
-448,9201
31
-344,4397
0
LINE
8
0
10
-434,7639
20
-448,9201
30
-344,4397
11
-65,2361
21
-448,9201
31
-344,4397
0
LINE
8
0
10
-65,2361
20
-448,9201
30
-344,4397
11
-65,2361
21
-448,9201
31
-521,5857
0
LINE
8
0
10
-65,2361
20
-448,9201
30
-521,5857
11
-434,7639
21
-448,9201
31
-521,5857
0
LINE
8
0
10
-434,7639
20
-448,9201
30
-521,5857
11
-434,7639
21
-448,9201
31
-344,4397
0
LINE
8
0
10
-434,7639
20
-51,0799
30
-521,5857
11
-65,2361
21
-51,0799
31
-521,5857
0
LINE
8
0
10
-65,2361
20
-51,0799
30
-521,5857
11
-65,2361
21
-51,0799
31
-344,4397
0
LINE
8
0
10
-65,2361
20
-51,0799
30
-344,4397
11
-434,7639
21
-51,0799
31
-344,4397
0
LINE
8
0
10
-434,7639
20
-51,0799
30
-344,4397
11
-434,7639
21
-51,0799
31
-521,5857
0
LINE
8
0
10
-499,8325
20
-410,1452
30
-448,0830
11
-0,1675
21
-410,1452
31
-448,0830
0
LINE
8
0
10
-0,1675
20
-410,1452
30
-448,0830
11
-0,1675
21
-89,8548
31
-448,0830
0
LINE
8
0
10
-0,1675
20
-89,8548
30
-448,0830
11
-499,8325
21
-89,8548
31
-448,0830
0
LINE
8
0
10
-499,8325
20
-89,8548
30
-448,0830
11
-499,8325
21
-410,1452
31
-448,0830
0
LINE
8
0
10
-0,1675
20
-410,1452
30
-448,0830
11
-0,1675
21
-410,1452
31
-417,9424
0
LINE
8
0
10
-0,1675
20
-410,1452
30
-417,9424
11
-0,1675
21
-89,8548
31
-417,9424
0
LINE
8
0
10
-0,1675
20
-89,8548
30
-417,9424
11
-0,1675
21
-89,8548
31
-448,0830
0
LINE
8
0
10
-0,1675
20
-89,8548
30
-448,0830
11
-0,1675
21
-410,1452
31
-448,0830
0
LINE
8
0
10
-0,1675
20
-410,1452
30
-417,9424
11
-499,8325
21
-410,1452
31
-417,9424
0
LINE
8
0
10
-499,8325
20
-410,1452
30
-417,9424
11
-499,8325
21
-89,8548
31
-417,9424
0
LINE
8
0
10
-499,8325
20
-89,8548
30
-417,9424
11
-0,1675
21
-89,8548
31
-417,9424
0
LINE
8
0
10
-0,1675
20
-89,8548
30
-417,9424
11
-0,1675
21
-410,1452
31
-417,9424
0
LINE
8
0
10
-499,8325
20
-410,1452
30
-417,9424
11
-499,8325
21
-410,1452
31
-448,0830
0
LINE
8
0
10
-499,8325
20
-410,1452
30
-448,0830
11
-499,8325
21
-89,8548
31
-448,0830
0
LINE
8
0
10
-499,8325
20
-89,8548
30
-448,0830
11
-499,8325
21
-89,8548
31
-417,9424
0
LINE
8
0
10
-499,8325
20
-89,8548
30
-417,9424
11
-499,8325
21
-410,1452
31
-417,9424
0
LINE
8
0
10
-499,8325
20
-410,1452
30
-417,9424
11
-0,1675
21
-410,1452
31
-417,9424
0
LINE
8
0
10
-0,1675
20
-410,1452
30
-417,9424
11
-0,1675
21
-410,1452
31
-448,0830
0
LINE
8
0
10
-0,1675
20
-410,1452
30
-448,0830
11
-499,8325
21
-410,1452
31
-448,0830
0
LINE
8
0
10
-499,8325
20
-410,1452
30
-448,0830
11
-499,8325
21
-410,1452
31
-417,9424
0
LINE
8
0
10
-499,8325
20
-89,8548
30
-448,0830
11
-0,1675
21
-89,8548
31
-448,0830
0
LINE
8
0
10
-0,1675
20
-89,8548
30
-448,0830
11
-0,1675
21
-89,8548
31
-417,9424
0
LINE
8
0
10
-0,1675
20
-89,8548
30
-417,9424
11
-499,8325
21
-89,8548
31
-417,9424
0
LINE
8
0
10
-499,8325
20
-89,8548
30
-417,9424
11
-499,8325
21
-89,8548
31
-448,0830
0
LINE
8
0
10
-508,0955
20
-450,5297
30
-448,5503
11
8,0955
21
-450,5297
31
-448,5503
0
LINE
8
0
10
8,0955
20
-450,5297
30
-448,5503
11
8,0955
21
-49,4703
31
-448,5503
0
LINE
8
0
10
8,0955
20
-49,4703
30
-448,5503
11
-508,0955
21
-49,4703
31
-448,5503
0
LINE
8
0
10
-508,0955
20
-49,4703
30
-448,5503
11
-508,0955
21
-450,5297
31
-448,5503
0
LINE
8
0
10
8,0955
20
-450,5297
30
-448,5503
11
8,0955
21
-450,5297
31
-417,4751
0
LINE
8
0
10
8,0955
20
-450,5297
30
-417,4751
11
8,0955
21
-49,4703
31
-417,4751
0
LINE
8
0
10
8,0955
20
-49,4703
30
-417,4751
11
8,0955
21
-49,4703
31
-448,5503
0
LINE
8
0
10
8,0955
20
-49,4703
30
-448,5503
11
8,0955
21
-450,5297
31
-448,5503
0
LINE
8
0
10
8,0955
20
-450,5297
30
-417,4751
11
-508,0955
21
-450,5297
31
-417,4751
0
LINE
8
0
10
-508,0955
20
-450,5297
30
-417,4751
11
-508,0955
21
-49,4703
31
-417,4751
0
LINE
8
0
10
-508,0955
20
-49,4703
30
-417,4751
11
8,0955
21
-49,4703
31
-417,4751
0
LINE
8
0
10
8,0955
20
-49,4703
30
-417,4751
11
8,0955
21
-450,5297
31
-417,4751
0
LINE
8
0
10
-508,0955
20
-450,5297
30
-417,4751
11
-508,0955
21
-450,5297
31
-448,5503
0
LINE
8
0
10
-508,0955
20
-450,5297
30
-448,5503
11
-508,0955
21
-49,4703
31
-448,5503
0
LINE
8
0
10
-508,0955
20
-49,4703
30
-448,5503
11
-508,0955
21
-49,4703
31
-417,4751
0
LINE
8
0
10
-508,0955
20
-49,4703
30
-417,4751
11
-508,0955
21
-450,5297
31
-417,4751
0
LINE
8
0
10
-508,0955
20
-450,5297
30
-417,4751
11
8,0955
21
-450,5297
31
-417,4751
0
LINE
8
0
10
8,0955
20
-450,5297
30
-417,4751
11
8,0955
21
-450,5297
31
-448,5503
0
LINE
8
0
10
8,0955
20
-450,5297
30
-448,5503
11
-508,0955
21
-450,5297
31
-448,5503
0
LINE
8
0
10
-508,0955
20
-450,5297
30
-448,5503
11
-508,0955
21
-450,5297
31
-417,4751
0
LINE
8
0
10
-508,0955
20
-49,4703
30
-448,5503
11
8,0955
21
-49,4703
31
-448,5503
0
LINE
8
0
10
8,0955
20
-49,4703
30
-448,5503
11
8,0955
21
-49,4703
31
-417,4751
0
LINE
8
0
10
8,0955
20
-49,4703
30
-417,4751
11
-508,0955
21
-49,4703
31
-417,4751
0
LINE
8
0
10
-508,0955
20
-49,4703
30
-417,4751
11
-508,0955
21
-49,4703
31
-448,5503
0
LINE
8
0
10
-414,5110
20
-447,9260
30
-506,7040
11
-85,4890
21
-447,9260
31
-506,7040
0
LINE
8
0
10
-85,4890
20
-447,9260
30
-506,7040
11
-85,4890
21
-52,0740
31
-506,7040
0
LINE
8
0
10
-85,4890
20
-52,0740
30
-506,7040
11
-414,5110
21
-52,0740
31
-506,7040
0
LINE
8
0
10
-414,5110
20
-52,0740
30
-506,7040
11
-414,5110
21
-447,9260
31
-506,7040
0
LINE
8
0
10
-85,4890
20
-447,9260
30
-506,7040
11
-85,4890
21
-447,9260
31
-359,3214
0
LINE
8
0
10
-85,4890
20
-447,9260
30
-359,3214
11
-85,4890
21
-52,0740
31
-359,3214
0
LINE
8
0
10
-85,4890
20
-52,0740
30
-359,3214
11
-85,4890
21
-52,0740
31
-506,7040
0
LINE
8
0
10
-85,4890
20
-52,0740
30
-506,7040
11
-85,4890
21
-447,9260
31
-506,7040
0
LINE
8
0
10
-85,4890
20
-447,9260
30
-359,3214
11
-414,5110
21
-447,9260
31
-359,3214
0
LINE
8
0
10
-414,5110
20
-447,9260
30
-359,3214
11
-414,5110
21
-52,0740
31
-359,3214
0
LINE
8
0
10
-414,5110
20
-52,0740
30
-359,3214
11
-85,4890
21
-52,0740
31
-359,3214
0
LINE
8
0
10
-85,4890
20
-52,0740
30
-359,3214
11
-85,4890
21
-447,9260
31
-359,3214
0
LINE
8
0
10
-414,5110
20
-447,9260
30
-359,3214
11
-414,5110
21
-447,9260
31
-506,7040
0
LINE
8
0
10
-414,5110
20
-447,9260
30
-506,7040
11
-414,5110
21
-52,0740
31
-506,7040
0
LINE
8
0
10
-414,5110
20
-52,0740
30
-506,7040
11
-414,5110
21
-52,0740
31
-359,3214
0
LINE
8
0
10
-414,5110
20
-52,0740
30
-359,3214
11
-414,5110
21
-447,9260
31
-359,3214
0
LINE
8
0
10
-414,5110
20
-447,9260
30
-359,3214
11
-85,4890
21
-447,9260
31
-359,3214
0
LINE
8
0
10
-85,4890
20
-447,9260
30
-359,3214
11
-85,4890
21
-447,9260
31
-506,7040
0
LINE
8
0
10
-85,4890
20
-447,9260
30
-506,7040
11
-414,5110
21
-447,9260
31
-506,7040
0
LINE
8
0
10
-414,5110
20
-447,9260
30
-506,7040
11
-414,5110
21
-447,9260
31
-359,3214
0
LINE
8
0
10
-414,5110
20
-52,0740
30
-506,7040
11
-85,4890
21
-52,0740
31
-506,7040
0
LINE
8
0
10
-85,4890
20
-52,0740
30
-506,7040
11
-85,4890
21
-52,0740
31
-359,3214
0
LINE
8
0
10
-85,4890
20
-52,0740
30
-359,3214
11
-414,5110
21
-52,0740
31
-359,3214
0
LINE
8
0
10
-414,5110
20
-52,0740
30
-359,3214
11
-414,5110
21
-52,0740
31
-506,7040
0
LINE
8
0
10
-469,2593
20
-428,3981
30
-532,2134
11
-30,7407
21
-428,3981
31
-532,2134
0
LINE
8
0
10
-30,7407
20
-428,3981
30
-532,2134
11
-30,7407
21
-71,6019
31
-532,2134
0
LINE
8
0
10
-30,7407
20
-71,6019
30
-532,2134
11
-469,2593
21
-71,6019
31
-532,2134
0
LINE
8
0
10
-469,2593
20
-71,6019
30
-532,2134
11
-469,2593
21
-428,3981
31
-532,2134
0
LINE
8
0
10
-30,7407
20
-428,3981
30
-532,2134
11
-30,7407
21
-428,3981
31
-333,8120
0
LINE
8
0
10
-30,7407
20
-428,3981
30
-333,8120
11
-30,7407
21
-71,6019
31
-333,8120
0
LINE
8
0
10
-30,7407
20
-71,6019
30
-333,8120
11
-30,7407
21
-71,6019
31
-532,2134
0
LINE
8
0
10
-30,7407
20
-71,6019
30
-532,2134
11
-30,7407
21
-428,3981
31
-532,2134
0
LINE
8
0
10
-30,7407
20
-428,3981
30
-333,8120
11
-469,2593
21
-428,3981
31
-333,8120
0
LINE
8
0
10
-469,2593
20
-428,3981
30
-333,8120
11
-469,2593
21
-71,6019
31
-333,8120
0
LINE
8
0
10
-469,2593
20
-71,6019
30
-333,8120
11
-30,7407
21
-71,6019
31
-333,8120
0
LINE
8
0
10
-30,7407
20
-71,6019
30
-333,8120
11
-30,7407
21
-428,3981
31
-333,8120
0
LINE
8
0
10
-469,2593
20
-428,3981
30
-333,8120
11
-469,2593
21
-428,3981
31
-532,2134
0
LINE
8
0
10
-469,2593
20
-428,3981
30
-532,2134
11
-469,2593
21
-71,6019
31
-532,2134
0
LINE
8
0
10
-469,2593
20
-71,6019
30
-532,2134
11
-469,2593
21
-71,6019
31
-333,8120
0
LINE
8
0
10
-469,2593
20
-71,6019
30
-333,8120
11
-469,2593
21
-428,3981
31
-333,8120
0
LINE
8
0
10
-469,2593
20
-428,3981
30
-333,8120
11
-30,7407
21
-428,3981
31
-333,8120
0
LINE
8
0
10
-30,7407
20
-428,3981
30
-333,8120
11
-30,7407
21
-428,3981
31
-532,2134
0
LINE
8
0
10
-30,7407
20
-428,3981
30
-532,2134
11
-469,2593
21
-428,3981
31
-532,2134
0
LINE
8
0
10
-469,2593
20
-428,3981
30
-532,2134
11
-469,2593
21
-428,3981
31
-333,8120
0
LINE
8
0
10
-469,2593
20
-71,6019
30
-532,2134
11
-30,7407
21
-71,6019
31
-532,2134
0
LINE
8
0
10
-30,7407
20
-71,6019
30
-532,2134
11
-30,7407
21
-71,6019
31
-333,8120
0
LINE
8
0
10
-30,7407
20
-71,6019
30
-333,8120
11
-469,2593
21
-71,6019
31
-333,8120
0
LINE
8
0
10
-469,2593
20
-71,6019
30
-333,8120
11
-469,2593
21
-71,6019
31
-532,2134
0
LINE
8
0
10
-404,0232
20
-459,1233
30
-453,4467
11
-95,9768
21
-459,1233
31
-453,4467
0
LINE
8
0
10
-95,9768
20
-459,1233
30
-453,4467
11
-95,9768
21
-40,8767
31
-453,4467
0
LINE
8
0
10
-95,9768
20
-40,8767
30
-453,4467
11
-404,0232
21
-40,8767
31
-453,4467
0
LINE
8
0
10
-404,0232
20
-40,8767
30
-453,4467
11
-404,0232
21
-459,1233
31
-453,4467
0
LINE
8
0
10
-95,9768
20
-459,1233
30
-453,4467
11
-95,9768
21
-459,1233
31
-412,5787
0
LINE
8
0
10
-95,9768
20
-459,1233
30
-412,5787
11
-95,9768
21
-40,8767
31
-412,5787
0
LINE
8
0
10
-95,9768
20
-40,8767
30
-412,5787
11
-95,9768
21
-40,8767
31
-453,4467
0
LINE
8
0
10
-95,9768
20
-40,8767
30
-453,4467
11
-95,9768
21
-459,1233
31
-453,4467
0
LINE
8
0
10
-95,9768
20
-459,1233
30
-412,5787
11
-404,0232
21
-459,1233
31
-412,5787
0
LINE
8
0
10
-404,0232
20
-459,1233
30
-412,5787
11
-404,0232
21
-40,8767
31
-412,5787
0
LINE
8
0
10
-404,0232
20
-40,8767
30
-412,5787
11
-95,9768
21
-40,8767
31
-412,5787
0
LINE
8
0
10
-95,9768
20
-40,8767
30
-412,5787
11
-95,9768
21
-459,1233
31
-412,5787
0
LINE
8
0
10
-404,0232
20
-459,1233
30
-412,5787
11
-404,0232
21
-459,1233
31
-453,4467
0
LINE
8
0
10
-404,0232
20
-459,1233
30
-453,4467
11
-404,0232
21
-40,8767
31
-453,4467
0
LINE
8
0
10
-404,0232
20
-40,8767
30
-453,4467
11
-404,0232
21
-40,8767
31
-412,5787
0
LINE
8
0
10
-404,0232
20
-40,8767
30
-412,5787
11
-404,0232
21
-459,1233
31
-412,5787
0
LINE
8
0
10
-404,0232
20
-459,1233
30
-412,5787
11
-95,9768
21
-459,1233
31
-412,5787
0
LINE
8
0
10
-95,9768
20
-459,1233
30
-412,5787
11
-95,9768
21
-459,1233
31
-453,4467
0
LINE
8
0
10
-95,9768
20
-459,1233
30
-453,4467
11
-404,0232
21
-459,1233
31
-453,4467
0
LINE
8
0
10
-404,0232
20
-459,1233
30
-453,4467
11
-404,0232
21
-459,1233
31
-412,5787
0
LINE
8
0
10
-404,0232
20
-40,8767
30
-453,4467
11
-95,9768
21
-40,8767
31
-453,4467
0
LINE
8
0
10
-95,9768
20
-40,8767
30
-453,4467
11
-95,9768
21
-40,8767
31
-412,5787
0
LINE
8
0
10
-95,9768
20
-40,8767
30
-412,5787
11
-404,0232
21
-40,8767
31
-412,5787
0
LINE
8
0
10
-404,0232
20
-40,8767
30
-412,5787
11
-404,0232
21
-40,8767
31
-453,4467
0
LINE
8
0
10
-397,8959
20
-473,7611
30
-541,5101
11
-102,1041
21
-473,7611
31
-541,5101
0
LINE
8
0
10
-102,1041
20
-473,7611
30
-541,5101
11
-102,1041
21
-26,2389
31
-541,5101
0
LINE
8
0
10
-102,1041
20
-26,2389
30
-541,5101
11
-397,8959
21
-26,2389
31
-541,5101
0
LINE
8
0
10
-397,8959
20
-26,2389
30
-541,5101
11
-397,8959
21
-473,7611
31
-541,5101
0
LINE
8
0
10
-102,1041
20
-473,7611
30
-541,5101
11
-102,1041
21
-473,7611
31
-324,5153
0
LINE
8
0
10
-102,1041
20
-473,7611
30
-324,5153
11
-102,1041
21
-26,2389
31
-324,5153
0
LINE
8
0
10
-102,1041
20
-26,2389
30
-324,5153
11
-102,1041
21
-26,2389
31
-541,5101
0
LINE
8
0
10
-102,1041
20
-26,2389
30
-541,5101
11
-102,1041
21
-473,7611
31
-541,5101
0
LINE
8
0
10
-102,1041
20
-473,7611
30
-324,5153
11
-397,8959
21
-473,7611
31
-324,5153
0
LINE
8
0
10
-397,8959
20
-473,7611
30
-324,5153
11
-397,8959
21
-26,2389
31
-324,5153
0
LINE
8
0
10
-397,8959
20
-26,2389
30
-324,5153
11
-102,1041
21
-26,2389
31
-324,5153
0
LINE
8
0
10
-102,1041
20
-26,2389
30
-324,5153
11
-102,1041
21
-473,7611
31
-324,5153
0
LINE
8
0
10
-397,8959
20
-473,7611
30
-324,5153
11
-397,8959
21
-473,7611
31
-541,5101
0
LINE
8
0
10
-397,8959
20
-473,7611
30
-541,5101
11
-397,8959
21
-26,2389
31
-541,5101
0
LINE
8
0
10
-397,8959
20
-26,2389
30
-541,5101
11
-397,8959
21
-26,2389
31
-324,5153
0
LINE
8
0
10
-397,8959
20
-26,2389
30
-324,5153
11
-397,8959
21
-473,7611
31
-324,5153
0
LINE
8
0
10
-397,8959
20
-473,7611
30
-324,5153
11
-102,1041
21
-473,7611
31
-324,5153
0
LINE
8
0
10
-102,1041
20
-473,7611
30
-324,5153
11
-102,1041
21
-473,7611
31
-541,5101
0
LINE
8
0
10
-102,1041
20
-473,7611
30
-541,5101
11
-397,8959
21
-473,7611
31
-541,5101
0
LINE
8
0
10
-397,8959
20
-473,7611
30
-541,5101
11
-397,8959
21
-473,7611
31
-324,5153
0
LINE
8
0
10
-397,8959
20
-26,2389
30
-541,5101
11
-102,1041
21
-26,2389
31
-541,5101
0
LINE
8
0
10
-102,1041
20
-26,2389
30
-541,5101
11
-102,1041
21
-26,2389
31
-324,5153
0
LINE
8
0
10
-102,1041
20
-26,2389
30
-324,5153
11
-397,8959
21
-26,2389
31
-324,5153
0
LINE
8
0
10
-397,8959
20
-26,2389
30
-324,5153
11
-397,8959
21
-26,2389
31
-541,5101
0
LINE
8
0
10
-543,6786
20
-389,2963
30
-579,7845
11
43,6786
21
-389,2963
31
-579,7845
0
LINE
8
0
10
43,6786
20
-389,2963
30
-579,7845
11
43,6786
21
-110,7037
31
-579,7845
0
LINE
8
0
10
43,6786
20
-110,7037
30
-579,7845
11
-543,6786
21
-110,7037
31
-579,7845
0
LINE
8
0
10
-543,6786
20
-110,7037
30
-579,7845
11
-543,6786
21
-389,2963
31
-579,7845
0
LINE
8
0
10
43,6786
20
-389,2963
30
-579,7845
11
43,6786
21
-389,2963
31
-286,2408
0
LINE
8
0
10
43,6786
20
-389,2963
30
-286,2408
11
43,6786
21
-110,7037
31
-286,2408
0
LINE
8
0
10
43,6786
20
-110,7037
30
-286,2408
11
43,6786
21
-110,7037
31
-579,7845
0
LINE
8
0
10
43,6786
20
-110,7037
30
-579,7845
11
43,6786
21
-389,2963
31
-579,7845
0
LINE
8
0
10
43,6786
20
-389,2963
30
-286,2408
11
-543,6786
21
-389,2963
31
-286,2408
0
LINE
8
0
10
-543,6786
20
-389,2963
30
-286,2408
11
-543,6786
21
-110,7037
31
-286,2408
0
LINE
8
0
10
-543,6786
20
-110,7037
30
-286,2408
11
43,6786
21
-110,7037
31
-286,2408
0
LINE
8
0
10
43,6786
20
-110,7037
30
-286,2408
11
43,6786
21
-389,2963
31
-286,2408
0
LINE
8
0
10
-543,6786
20
-389,2963
30
-286,2408
11
-543,6786
21
-389,2963
31
-579,7845
0
LINE
8
0
10
-543,6786
20
-389,2963
30
-579,7845
11
-543,6786
21
-110,7037
31
-579,7845
0
LINE
8
0
10
-543,6786
20
-110,7037
30
-579,7845
11
-543,6786
21
-110,7037
31
-286,2408
0
LINE
8
0
10
-543,6786
20
-110,7037
30
-286,2408
11
-543,6786
21
-389,2963
31
-286,2408
0
LINE
8
0
10
-543,6786
20
-389,2963
30
-286,2408
11
43,6786
21
-389,2963
31
-286,2408
0
LINE
8
0
10
43,6786
20
-389,2963
30
-286,2408
11
43,6786
21
-389,2963
31
-579,7845
0
LINE
8
0
10
43,6786
20
-389,2963
30
-579,7845
11
-543,6786
21
-389,2963
31
-579,7845
0
LINE
8
0
10
-543,6786
20
-389,2963
30
-579,7845
11
-543,6786
21
-389,2963
31
-286,2408
0
LINE
8
0
10
-543,6786
20
-110,7037
30
-579,7845
11
43,6786
21
-110,7037
31
-579,7845
0
LINE
8
0
10
43,6786
20
-110,7037
30
-579,7845
11
43,6786
21
-110,7037
31
-286,2408
0
LINE
8
0
10
43,6786
20
-110,7037
30
-286,2408
11
-543,6786
21
-110,7037
31
-286,2408
0
LINE
8
0
10
-543,6786
20
-110,7037
30
-286,2408
11
-543,6786
21
-110,7037
31
-579,7845
0
LINE
8
0
10
-534,0835
20
-524,7438
30
-453,1030
11
34,0835
21
-524,7438
31
-453,1030
0
LINE
8
0
10
34,0835
20
-524,7438
30
-453,1030
11
34,0835
21
24,7437
31
-453,1030
0
LINE
8
0
10
34,0835
20
24,7437
30
-453,1030
11
-534,0835
21
24,7437
31
-453,1030
0
LINE
8
0
10
-534,0835
20
24,7437
30
-453,1030
11
-534,0835
21
-524,7438
31
-453,1030
0
LINE
8
0
10
34,0835
20
-524,7438
30
-453,1030
11
34,0835
21
-524,7438
31
-412,9224
0
LINE
8
0
10
34,0835
20
-524,7438
30
-412,9224
11
34,0835
21
24,7437
31
-412,9224
0
LINE
8
0
10
34,0835
20
24,7437
30
-412,9224
11
34,0835
21
24,7437
31
-453,1030
0
LINE
8
0
10
34,0835
20
24,7437
30
-453,1030
11
34,0835
21
-524,7438
31
-453,1030
0
LINE
8
0
10
34,0835
20
-524,7438
30
-412,9224
11
-534,0835
21
-524,7438
31
-412,9224
0
LINE
8
0
10
-534,0835
20
-524,7438
30
-412,9224
11
-534,0835
21
24,7437
31
-412,9224
0
LINE
8
0
10
-534,0835
20
24,7437
30
-412,9224
11
34,0835
21
24,7437
31
-412,9224
0
LINE
8
0
10
34,0835
20
24,7437
30
-412,9224
11
34,0835
21
-524,7438
31
-412,9224
0
LINE
8
0
10
-534,0835
20
-524,7438
30
-412,9224
11
-534,0835
21
-524,7438
31
-453,1030
0
LINE
8
0
10
-534,0835
20
-524,7438
30
-453,1030
11
-534,0835
21
24,7437
31
-453,1030
0
LINE
8
0
10
-534,0835
20
24,7437
30
-453,1030
11
-534,0835
21
24,7437
31
-412,9224
0
LINE
8
0
10
-534,0835
20
24,7437
30
-412,9224
11
-534,0835
21
-524,7438
31
-412,9224
0
LINE
8
0
10
-534,0835
20
-524,7438
30
-412,9224
11
34,0835
21
-524,7438
31
-412,9224
0
LINE
8
0
10
34,0835
20
-524,7438
30
-412,9224
11
34,0835
21
-524,7438
31
-453,1030
0
LINE
8
0
10
34,0835
20
-524,7438
30
-453,1030
11
-534,0835
21
-524,7438
31
-453,1030
0
LINE
8
0
10
-534,0835
20
-524,7438
30
-453,1030
11
-534,0835
21
-524,7438
31
-412,9224
0
LINE
8
0
10
-534,0835
20
24,7437
30
-453,1030
11
34,0835
21
24,7437
31
-453,1030
0
LINE
8
0
10
34,0835
20
24,7437
30
-453,1030
11
34,0835
21
24,7437
31
-412,9224
0
LINE
8
0
10
34,0835
20
24,7437
30
-412,9224
11
-534,0835
21
24,7437
31
-412,9224
0
LINE
8
0
10
-534,0835
20
24,7437
30
-412,9224
11
-534,0835
21
24,7437
31
-453,1030
0
LINE
8
0
10
-517,7487
20
-537,6569
30
-593,8630
11
17,7487
21
-537,6569
31
-593,8630
0
LINE
8
0
10
17,7487
20
-537,6569
30
-593,8630
11
17,7487
21
37,6569
31
-593,8630
0
LINE
8
0
10
17,7487
20
37,6569
30
-593,8630
11
-517,7487
21
37,6569
31
-593,8630
0
LINE
8
0
10
-517,7487
20
37,6569
30
-593,8630
11
-517,7487
21
-537,6569
31
-593,8630
0
LINE
8
0
10
17,7487
20
-537,6569
30
-593,8630
11
17,7487
21
-537,6569
31
-272,1624
0
LINE
8
0
10
17,7487
20
-537,6569
30
-272,1624
11
17,7487
21
37,6569
31
-272,1624
0
LINE
8
0
10
17,7487
20
37,6569
30
-272,1624
11
17,7487
21
37,6569
31
-593,8630
0
LINE
8
0
10
17,7487
20
37,6569
30
-593,8630
11
17,7487
21
-537,6569
31
-593,8630
0
LINE
8
0
10
17,7487
20
-537,6569
30
-272,1624
11
-517,7487
21
-537,6569
31
-272,1624
0
LINE
8
0
10
-517,7487
20
-537,6569
30
-272,1624
11
-517,7487
21
37,6569
31
-272,1624
0
LINE
8
0
10
-517,7487
20
37,6569
30
-272,1624
11
17,7487
21
37,6569
31
-272,1624
0
LINE
8
0
10
17,7487
20
37,6569
30
-272,1624
11
17,7487
21
-537,6569
31
-272,1624
0
LINE
8
0
10
-517,7487
20
-537,6569
30
-272,1624
11
-517,7487
21
-537,6569
31
-593,8630
0
LINE
8
0
10
-517,7487
20
-537,6569
30
-593,8630
11
-517,7487
21
37,6569
31
-593,8630
0
LINE
8
0
10
-517,7487
20
37,6569
30
-593,8630
11
-517,7487
21
37,6569
31
-272,1624
0
LINE
8
0
10
-517,7487
20
37,6569
30
-272,1624
11
-517,7487
21
-537,6569
31
-272,1624
0
LINE
8
0
10
-517,7487
20
-537,6569
30
-272,1624
11
17,7487
21
-537,6569
31
-272,1624
0
LINE
8
0
10
17,7487
20
-537,6569
30
-272,1624
11
17,7487
21
-537,6569
31
-593,8630
0
LINE
8
0
10
17,7487
20
-537,6569
30
-593,8630
11
-517,7487
21
-537,6569
31
-593,8630
0
LINE
8
0
10
-517,7487
20
-537,6569
30
-593,8630
11
-517,7487
21
-537,6569
31
-272,1624
0
LINE
8
0
10
-517,7487
20
37,6569
30
-593,8630
11
17,7487
21
37,6569
31
-593,8630
0
LINE
8
0
10
17,7487
20
37,6569
30
-593,8630
11
17,7487
21
37,6569
31
-272,1624
0
LINE
8
0
10
17,7487
20
37,6569
30
-272,1624
11
-517,7487
21
37,6569
31
-272,1624
0
LINE
8
0
10
-517,7487
20
37,6569
30
-272,1624
11
-517,7487
21
37,6569
31
-593,8630
0
LINE
8
0
10
-469,5370
20
-522,7684
30
-490,6648
11
-30,4630
21
-522,7684
31
-490,6648
0
LINE
8
0
10
-30,4630
20
-522,7684
30
-490,6648
11
-30,4630
21
22,7684
31
-490,6648
0
LINE
8
0
10
-30,4630
20
22,7684
30
-490,6648
11
-469,5370
21
22,7684
31
-490,6648
0
LINE
8
0
10
-469,5370
20
22,7684
30
-490,6648
11
-469,5370
21
-522,7684
31
-490,6648
0
LINE
8
0
10
-30,4630
20
-522,7684
30
-490,6648
11
-30,4630
21
-522,7684
31
-375,3606
0
LINE
8
0
10
-30,4630
20
-522,7684
30
-375,3606
11
-30,4630
21
22,7684
31
-375,3606
0
LINE
8
0
10
-30,4630
20
22,7684
30
-375,3606
11
-30,4630
21
22,7684
31
-490,6648
0
LINE
8
0
10
-30,4630
20
22,7684
30
-490,6648
11
-30,4630
21
-522,7684
31
-490,6648
0
LINE
8
0
10
-30,4630
20
-522,7684
30
-375,3606
11
-469,5370
21
-522,7684
31
-375,3606
0
LINE
8
0
10
-469,5370
20
-522,7684
30
-375,3606
11
-469,5370
21
22,7684
31
-375,3606
0
LINE
8
0
10
-469,5370
20
22,7684
30
-375,3606
11
-30,4630
21
22,7684
31
-375,3606
0
LINE
8
0
10
-30,4630
20
22,7684
30
-375,3606
11
-30,4630
21
-522,7684
31
-375,3606
0
LINE
8
0
10
-469,5370
20
-522,7684
30
-375,3606
11
-469,5370
21
-522,7684
31
-490,6648
0
LINE
8
0
10
-469,5370
20
-522,7684
30
-490,6648
11
-469,5370
21
22,7684
31
-490,6648
0
LINE
8
0
10
-469,5370
20
22,7684
30
-490,6648
11
-469,5370
21
22,7684
31
-375,3606
0
LINE
8
0
10
-469,5370
20
22,7684
30
-375,3606
11
-469,5370
21
-522,7684
31
-375,3606
0
LINE
8
0
10
-469,5370
20
-522,7684
30
-375,3606
11
-30,4630
21
-522,7684
31
-375,3606
0
LINE
8
0
10
-30,4630
20
-522,7684
30
-375,3606
11
-30,4630
21
-522,7684
31
-490,6648
0
LINE
8
0
10
-30,4630
20
-522,7684
30
-490,6648
11
-469,5370
21
-522,7684
31
-490,6648
0
LINE
8
0
10
-469,5370
20
-522,7684
30
-490,6648
11
-469,5370
21
-522,7684
31
-375,3606
0
LINE
8
0
10
-469,5370
20
22,7684
30
-490,6648
11
-30,4630
21
22,7684
31
-490,6648
0
LINE
8
0
10
-30,4630
20
22,7684
30
-490,6648
11
-30,4630
21
22,7684
31
-375,3606
0
LINE
8
0
10
-30,4630
20
22,7684
30
-375,3606
11
-469,5370
21
22,7684
31
-375,3606
0
LINE
8
0
10
-469,5370
20
22,7684
30
-375,3606
11
-469,5370
21
22,7684
31
-490,6648
0
LINE
8
0
10
-379,2593
20
-447,7979
30
-472,1284
11
-120,7407
21
-447,7979
31
-472,1284
0
LINE
8
0
10
-120,7407
20
-447,7979
30
-472,1284
11
-120,7407
21
-52,2021
31
-472,1284
0
LINE
8
0
10
-120,7407
20
-52,2021
30
-472,1284
11
-379,2593
21
-52,2021
31
-472,1284
0
LINE
8
0
10
-379,2593
20
-52,2021
30
-472,1284
11
-379,2593
21
-447,7979
31
-472,1284
0
LINE
8
0
10
-120,7407
20
-447,7979
30
-472,1284
11
-120,7407
21
-447,7979
31
-393,8970
0
LINE
8
0
10
-120,7407
20
-447,7979
30
-393,8970
11
-120,7407
21
-52,2021
31
-393,8970
0
LINE
8
0
10
-120,7407
20
-52,2021
30
-393,8970
11
-120,7407
21
-52,2021
31
-472,1284
0
LINE
8
0
10
-120,7407
20
-52,2021
30
-472,1284
11
-120,7407
21
-447,7979
31
-472,1284
0
LINE
8
0
10
-120,7407
20
-447,7979
30
-393,8970
11
-379,2593
21
-447,7979
31
-393,8970
0
LINE
8
0
10
-379,2593
20
-447,7979
30
-393,8970
11
-379,2593
21
-52,2021
31
-393,8970
0
LINE
8
0
10
-379,2593
20
-52,2021
30
-393,8970
11
-120,7407
21
-52,2021
31
-393,8970
0
LINE
8
0
10
-120,7407
20
-52,2021
30
-393,8970
11
-120,7407
21
-447,7979
31
-393,8970
0
LINE
8
0
10
-379,2593
20
-447,7979
30
-393,8970
11
-379,2593
21
-447,7979
31
-472,1284
0
LINE
8
0
10
-379,2593
20
-447,7979
30
-472,1284
11
-379,2593
21
-52,2021
31
-472,1284
0
LINE
8
0
10
-379,2593
20
-52,2021
30
-472,1284
11
-379,2593
21
-52,2021
31
-393,8970
0
LINE
8
0
10
-379,2593
20
-52,2021
30
-393,8970
11
-379,2593
21
-447,7979
31
-393,8970
0
LINE
8
0
10
-379,2593
20
-447,7979
30
-393,8970
11
-120,7407
21
-447,7979
31
-393,8970
0
LINE
8
0
10
-120,7407
20
-447,7979
30
-393,8970
11
-120,7407
21
-447,7979
31
-472,1284
0
LINE
8
0
10
-120,7407
20
-447,7979
30
-472,1284
11
-379,2593
21
-447,7979
31
-472,1284
0
LINE
8
0
10
-379,2593
20
-447,7979
30
-472,1284
11
-379,2593
21
-447,7979
31
-393,8970
0
LINE
8
0
10
-379,2593
20
-52,2021
30
-472,1284
11
-120,7407
21
-52,2021
31
-472,1284
0
LINE
8
0
10
-120,7407
20
-52,2021
30
-472,1284
11
-120,7407
21
-52,2021
31
-393,8970
0
LINE
8
0
10
-120,7407
20
-52,2021
30
-393,8970
11
-379,2593
21
-52,2021
31
-393,8970
0
LINE
8
0
10
-379,2593
20
-52,2021
30
-393,8970
11
-379,2593
21
-52,2021
31
-472,1284
0
LINE
8
0
10
-399,5639
20
-561,0836
30
-574,8140
11
-100,4361
21
-561,0836
31
-574,8140
0
LINE
8
0
10
-100,4361
20
-561,0836
30
-574,8140
11
-100,4361
21
61,0836
31
-574,8140
0
LINE
8
0
10
-100,4361
20
61,0836
30
-574,8140
11
-399,5639
21
61,0836
31
-574,8140
0
LINE
8
0
10
-399,5639
20
61,0836
30
-574,8140
11
-399,5639
21
-561,0836
31
-574,8140
0
LINE
8
0
10
-100,4361
20
-561,0836
30
-574,8140
11
-100,4361
21
-561,0836
31
-291,2114
0
LINE
8
0
10
-100,4361
20
-561,0836
30
-291,2114
11
-100,4361
21
61,0836
31
-291,2114
0
LINE
8
0
10
-100,4361
20
61,0836
30
-291,2114
11
-100,4361
21
61,0836
31
-574,8140
0
LINE
8
0
10
-100,4361
20
61,0836
30
-574,8140
11
-100,4361
21
-561,0836
31
-574,8140
0
LINE
8
0
10
-100,4361
20
-561,0836
30
-291,2114
11
-399,5639
21
-561,0836
31
-291,2114
0
LINE
8
0
10
-399,5639
20
-561,0836
30
-291,2114
11
-399,5639
21
61,0836
31
-291,2114
0
LINE
8
0
10
-399,5639
20
61,0836
30
-291,2114
11
-100,4361
21
61,0836
31
-291,2114
0
LINE
8
0
10
-100,4361
20
61,0836
30
-291,2114
11
-100,4361
21
-561,0836
31
-291,2114
0
LINE
8
0
10
-399,5639
20
-561,0836
30
-291,2114
11
-399,5639
21
-561,0836
31
-574,8140
0
LINE
8
0
10
-399,5639
20
-561,0836
30
-574,8140
11
-399,5639
21
61,0836
31
-574,8140
0
LINE
8
0
10
-399,5639
20
61,0836
30
-574,8140
11
-399,5639
21
61,0836
31
-291,2114
0
LINE
8
0
10
-399,5639
20
61,0836
30
-291,2114
11
-399,5639
21
-561,0836
31
-291,2114
0
LINE
8
0
10
-399,5639
20
-561,0836
30
-291,2114
11
-100,4361
21
-561,0836
31
-291,2114
0
LINE
8
0
10
-100,4361
20
-561,0836
30
-291,2114
11
-100,4361
21
-561,0836
31
-574,8140
0
LINE
8
0
10
-100,4361
20
-561,0836
30
-574,8140
11
-399,5639
21
-561,0836
31
-574,8140
0
LINE
8
0
10
-399,5639
20
-561,0836
30
-574,8140
11
-399,5639
21
-561,0836
31
-291,2114
0
LINE
8
0
10
-399,5639
20
61,0836
30
-574,8140
11
-100,4361
21
61,0836
31
-574,8140
0
LINE
8
0
10
-100,4361
20
61,0836
30
-574,8140
11
-100,4361
21
61,0836
31
-291,2114
0
LINE
8
0
10
-100,4361
20
61,0836
30
-291,2114
11
-399,5639
21
61,0836
31
-291,2114
0
LINE
8
0
10
-399,5639
20
61,0836
30
-291,2114
11
-399,5639
21
61,0836
31
-574,8140
0
LINE
8
0
10
-545,1801
20
-528,3951
30
-515,7639
11
45,1801
21
-528,3951
31
-515,7639
0
LINE
8
0
10
45,1801
20
-528,3951
30
-515,7639
11
45,1801
21
28,3951
31
-515,7639
0
LINE
8
0
10
45,1801
20
28,3951
30
-515,7639
11
-545,1801
21
28,3951
31
-515,7639
0
LINE
8
0
10
-545,1801
20
28,3951
30
-515,7639
11
-545,1801
21
-528,3951
31
-515,7639
0
LINE
8
0
10
45,1801
20
-528,3951
30
-515,7639
11
45,1801
21
-528,3951
31
-350,2615
0
LINE
8
0
10
45,1801
20
-528,3951
30
-350,2615
11
45,1801
21
28,3951
31
-350,2615
0
LINE
8
0
10
45,1801
20
28,3951
30
-350,2615
11
45,1801
21
28,3951
31
-515,7639
0
LINE
8
0
10
45,1801
20
28,3951
30
-515,7639
11
45,1801
21
-528,3951
31
-515,7639
0
LINE
8
0
10
45,1801
20
-528,3951
30
-350,2615
11
-545,1801
21
-528,3951
31
-350,2615
0
LINE
8
0
10
-545,1801
20
-528,3951
30
-350,2615
11
-545,1801
21
28,3951
31
-350,2615
0
LINE
8
0
10
-545,1801
20
28,3951
30
-350,2615
11
45,1801
21
28,3951
31
-350,2615
0
LINE
8
0
10
45,1801
20
28,3951
30
-350,2615
11
45,1801
21
-528,3951
31
-350,2615
0
LINE
8
0
10
-545,1801
20
-528,3951
30
-350,2615
11
-545,1801
21
-528,3951
31
-515,7639
0
LINE
8
0
10
-545,1801
20
-528,3951
30
-515,7639
11
-545,1801
21
28,3951
31
-515,7639
0
LINE
8
0
10
-545,1801
20
28,3951
30
-515,7639
11
-545,1801
21
28,3951
31
-350,2615
0
LINE
8
0
10
-545,1801
20
28,3951
30
-350,2615
11
-545,1801
21
-528,3951
31
-350,2615
0
LINE
8
0
10
-545,1801
20
-528,3951
30
-350,2615
11
45,1801
21
-528,3951
31
-350,2615
0
LINE
8
0
10
45,1801
20
-528,3951
30
-350,2615
11
45,1801
21
-528,3951
31
-515,7639
0
LINE
8
0
10
45,1801
20
-528,3951
30
-515,7639
11
-545,1801
21
-528,3951
31
-515,7639
0
LINE
8
0
10
-545,1801
20
-528,3951
30
-515,7639
11
-545,1801
21
-528,3951
31
-350,2615
0
LINE
8
0
10
-545,1801
20
28,3951
30
-515,7639
11
45,1801
21
28,3951
31
-515,7639
0
LINE
8
0
10
45,1801
20
28,3951
30
-515,7639
11
45,1801
21
28,3951
31
-350,2615
0
LINE
8
0
10
45,1801
20
28,3951
30
-350,2615
11
-545,1801
21
28,3951
31
-350,2615
0
LINE
8
0
10
-545,1801
20
28,3951
30
-350,2615
11
-545,1801
21
28,3951
31
-515,7639
0
LINE
8
0
10
-490,8378
20
-464,1950
30
-528,6338
11
-9,1622
21
-464,1950
31
-528,6338
0
LINE
8
0
10
-9,1622
20
-464,1950
30
-528,6338
11
-9,1622
21
-35,8050
31
-528,6338
0
LINE
8
0
10
-9,1622
20
-35,8050
30
-528,6338
11
-490,8378
21
-35,8050
31
-528,6338
0
LINE
8
0
10
-490,8378
20
-35,8050
30
-528,6338
11
-490,8378
21
-464,1950
31
-528,6338
0
LINE
8
0
10
-9,1622
20
-464,1950
30
-528,6338
11
-9,1622
21
-464,1950
31
-337,3916
0
LINE
8
0
10
-9,1622
20
-464,1950
30
-337,3916
11
-9,1622
21
-35,8050
31
-337,3916
0
LINE
8
0
10
-9,1622
20
-35,8050
30
-337,3916
11
-9,1622
21
-35,8050
31
-528,6338
0
LINE
8
0
10
-9,1622
20
-35,8050
30
-528,6338
11
-9,1622
21
-464,1950
31
-528,6338
0
LINE
8
0
10
-9,1622
20
-464,1950
30
-337,3916
11
-490,8378
21
-464,1950
31
-337,3916
0
LINE
8
0
10
-490,8378
20
-464,1950
30
-337,3916
11
-490,8378
21
-35,8050
31
-337,3916
0
LINE
8
0
10
-490,8378
20
-35,8050
30
-337,3916
11
-9,1622
21
-35,8050
31
-337,3916
0
LINE
8
0
10
-9,1622
20
-35,8050
30
-337,3916
11
-9,1622
21
-464,1950
31
-337,3916
0
LINE
8
0
10
-490,8378
20
-464,1950
30
-337,3916
11
-490,8378
21
-464,1950
31
-528,6338
0
LINE
8
0
10
-490,8378
20
-464,1950
30
-528,6338
11
-490,8378
21
-35,8050
31
-528,6338
0
LINE
8
0
10
-490,8378
20
-35,8050
30
-528,6338
11
-490,8378
21
-35,8050
31
-337,3916
0
LINE
8
0
10
-490,8378
20
-35,8050
30
-337,3916
11
-490,8378
21
-464,1950
31
-337,3916
0
LINE
8
0
10
-490,8378
20
-464,1950
30
-337,3916
11
-9,1622
21
-464,1950
31
-337,3916
0
LINE
8
0
10
-9,1622
20
-464,1950
30
-337,3916
11
-9,1622
21
-464,1950
31
-528,6338
0
LINE
8
0
10
-9,1622
20
-464,1950
30
-528,6338
11
-490,8378
21
-464,1950
31
-528,6338
0
LINE
8
0
10
-490,8378
20
-464,1950
30
-528,6338
11
-490,8378
21
-464,1950
31
-337,3916
0
LINE
8
0
10
-490,8378
20
-35,8050
30
-528,6338
11
-9,1622
21
-35,8050
31
-528,6338
0
LINE
8
0
10
-9,1622
20
-35,8050
30
-528,6338
11
-9,1622
21
-35,8050
31
-337,3916
0
LINE
8
0
10
-9,1622
20
-35,8050
30
-337,3916
11
-490,8378
21
-35,8050
31
-337,3916
0
LINE
8
0
10
-490,8378
20
-35,8050
30
-337,3916
11
-490,8378
21
-35,8050
31
-528,6338
0
LINE
8
0
10
-533,6150
20
-531,0328
30
-530,2028
11
33,6150
21
-531,0328
31
-530,2028
0
LINE
8
0
10
33,6150
20
-531,0328
30
-530,2028
11
33,6150
21
31,0328
31
-530,2028
0
LINE
8
0
10
33,6150
20
31,0328
30
-530,2028
11
-533,6150
21
31,0328
31
-530,2028
0
LINE
8
0
10
-533,6150
20
31,0328
30
-530,2028
11
-533,6150
21
-531,0328
31
-530,2028
0
LINE
8
0
10
33,6150
20
-531,0328
30
-530,2028
11
33,6150
21
-531,0328
31
-335,8226
0
LINE
8
0
10
33,6150
20
-531,0328
30
-335,8226
11
33,6150
21
31,0328
31
-335,8226
0
LINE
8
0
10
33,6150
20
31,0328
30
-335,8226
11
33,6150
21
31,0328
31
-530,2028
0
LINE
8
0
10
33,6150
20
31,0328
30
-530,2028
11
33,6150
21
-531,0328
31
-530,2028
0
LINE
8
0
10
33,6150
20
-531,0328
30
-335,8226
11
-533,6150
21
-531,0328
31
-335,8226
0
LINE
8
0
10
-533,6150
20
-531,0328
30
-335,8226
11
-533,6150
21
31,0328
31
-335,8226
0
LINE
8
0
10
-533,6150
20
31,0328
30
-335,8226
11
33,6150
21
31,0328
31
-335,8226
0
LINE
8
0
10
33,6150
20
31,0328
30
-335,8226
11
33,6150
21
-531,0328
31
-335,8226
0
LINE
8
0
10
-533,6150
20
-531,0328
30
-335,8226
11
-533,6150
21
-531,0328
31
-530,2028
0
LINE
8
0
10
-533,6150
20
-531,0328
30
-530,2028
11
-533,6150
21
31,0328
31
-530,2028
0
LINE
8
0
10
-533,6150
20
31,0328
30
-530,2028
11
-533,6150
21
31,0328
31
-335,8226
0
LINE
8
0
10
-533,6150
20
31,0328
30
-335,8226
11
-533,6150
21
-531,0328
31
-335,8226
0
LINE
8
0
10
-533,6150
20
-531,0328
30
-335,8226
11
33,6150
21
-531,0328
31
-335,8226
0
LINE
8
0
10
33,6150
20
-531,0328
30
-335,8226
11
33,6150
21
-531,0328
31
-530,2028
0
LINE
8
0
10
33,6150
20
-531,0328
30
-530,2028
11
-533,6150
21
-531,0328
31
-530,2028
0
LINE
8
0
10
-533,6150
20
-531,0328
30
-530,2028
11
-533,6150
21
-531,0328
31
-335,8226
0
LINE
8
0
10
-533,6150
20
31,0328
30
-530,2028
11
33,6150
21
31,0328
31
-530,2028
0
LINE
8
0
10
33,6150
20
31,0328
30
-530,2028
11
33,6150
21
31,0328
31
-335,8226
0
LINE
8
0
10
33,6150
20
31,0328
30
-335,8226
11
-533,6150
21
31,0328
31
-335,8226
0
LINE
8
0
10
-533,6150
20
31,0328
30
-335,8226
11
-533,6150
21
31,0328
31
-530,2028
0
LINE
8
0
10
-490,8151
20
-533,3524
30
-558,9075
11
-9,1849
21
-533,3524
31
-558,9075
0
LINE
8
0
10
-9,1849
20
-533,3524
30
-558,9075
11
-9,1849
21
33,3524
31
-558,9075
0
LINE
8
0
10
-9,1849
20
33,3524
30
-558,9075
11
-490,8151
21
33,3524
31
-558,9075
0
LINE
8
0
10
-490,8151
20
33,3524
30
-558,9075
11
-490,8151
21
-533,3524
31
-558,9075
0
LINE
8
0
10
-9,1849
20
-533,3524
30
-558,9075
11
-9,1849
21
-533,3524
31
-307,1179
0
LINE
8
0
10
-9,1849
20
-533,3524
30
-307,1179
11
-9,1849
21
33,3524
31
-307,1179
0
LINE
8
0
10
-9,1849
20
33,3524
30
-307,1179
11
-9,1849
21
33,3524
31
-558,9075
0
LINE
8
0
10
-9,1849
20
33,3524
30
-558,9075
11
-9,1849
21
-533,3524
31
-558,9075
0
LINE
8
0
10
-9,1849
20
-533,3524
30
-307,1179
11
-490,8151
21
-533,3524
31
-307,1179
0
LINE
8
0
10
-490,8151
20
-533,3524
30
-307,1179
11
-490,8151
21
33,3524
31
-307,1179
0
LINE
8
0
10
-490,8151
20
33,3524
30
-307,1179
11
-9,1849
21
33,3524
31
-307,1179
0
LINE
8
0
10
-9,1849
20
33,3524
30
-307,1179
11
-9,1849
21
-533,3524
31
-307,1179
0
LINE
8
0
10
-490,8151
20
-533,3524
30
-307,1179
11
-490,8151
21
-533,3524
31
-558,9075
0
LINE
8
0
10
-490,8151
20
-533,3524
30
-558,9075
11
-490,8151
21
33,3524
31
-558,9075
0
LINE
8
0
10
-490,8151
20
33,3524
30
-558,9075
11
-490,8151
21
33,3524
31
-307,1179
0
LINE
8
0
10
-490,8151
20
33,3524
30
-307,1179
11
-490,8151
21
-533,3524
31
-307,1179
0
LINE
8
0
10
-490,8151
20
-533,3524
30
-307,1179
11
-9,1849
21
-533,3524
31
-307,1179
0
LINE
8
0
10
-9,1849
20
-533,3524
30
-307,1179
11
-9,1849
21
-533,3524
31
-558,9075
0
LINE
8
0
10
-9,1849
20
-533,3524
30
-558,9075
11
-490,8151
21
-533,3524
31
-558,9075
0
LINE
8
0
10
-490,8151
20
-533,3524
30
-558,9075
11
-490,8151
21
-533,3524
31
-307,1179
0
LINE
8
0
10
-490,8151
20
33,3524
30
-558,9075
11
-9,1849
21
33,3524
31
-558,9075
0
LINE
8
0
10
-9,1849
20
33,3524
30
-558,9075
11
-9,1849
21
33,3524
31
-307,1179
0
LINE
8
0
10
-9,1849
20
33,3524
30
-307,1179
11
-490,8151
21
33,3524
31
-307,1179
0
LINE
8
0
10
-490,8151
20
33,3524
30
-307,1179
11
-490,8151
21
33,3524
31
-558,9075
0
LINE
8
0
10
-389,7035
20
-485,1514
30
-507,5668
11
-110,2965
21
-485,1514
31
-507,5668
0
LINE
8
0
10
-110,2965
20
-485,1514
30
-507,5668
11
-110,2965
21
-14,8486
31
-507,5668
0
LINE
8
0
10
-110,2965
20
-14,8486
30
-507,5668
11
-389,7035
21
-14,8486
31
-507,5668
0
LINE
8
0
10
-389,7035
20
-14,8486
30
-507,5668
11
-389,7035
21
-485,1514
31
-507,5668
0
LINE
8
0
10
-110,2965
20
-485,1514
30
-507,5668
11
-110,2965
21
-485,1514
31
-358,4586
0
LINE
8
0
10
-110,2965
20
-485,1514
30
-358,4586
11
-110,2965
21
-14,8486
31
-358,4586
0
LINE
8
0
10
-110,2965
20
-14,8486
30
-358,4586
11
-110,2965
21
-14,8486
31
-507,5668
0
LINE
8
0
10
-110,2965
20
-14,8486
30
-507,5668
11
-110,2965
21
-485,1514
31
-507,5668
0
LINE
8
0
10
-110,2965
20
-485,1514
30
-358,4586
11
-389,7035
21
-485,1514
31
-358,4586
0
LINE
8
0
10
-389,7035
20
-485,1514
30
-358,4586
11
-389,7035
21
-14,8486
31
-358,4586
0
LINE
8
0
10
-389,7035
20
-14,8486
30
-358,4586
11
-110,2965
21
-14,8486
31
-358,4586
0
LINE
8
0
10
-110,2965
20
-14,8486
30
-358,4586
11
-110,2965
21
-485,1514
31
-358,4586
0
LINE
8
0
10
-389,7035
20
-485,1514
30
-358,4586
11
-389,7035
21
-485,1514
31
-507,5668
0
LINE
8
0
10
-389,7035
20
-485,1514
30
-507,5668
11
-389,7035
21
-14,8486
31
-507,5668
0
LINE
8
0
10
-389,7035
20
-14,8486
30
-507,5668
11
-389,7035
21
-14,8486
31
-358,4586
0
LINE
8
0
10
-389,7035
20
-14,8486
30
-358,4586
11
-389,7035
21
-485,1514
31
-358,4586
0
LINE
8
0
10
-389,7035
20
-485,1514
30
-358,4586
11
-110,2965
21
-485,1514
31
-358,4586
0
LINE
8
0
10
-110,2965
20
-485,1514
30
-358,4586
11
-110,2965
21
-485,1514
31
-507,5668
0
LINE
8
0
10
-110,2965
20
-485,1514
30
-507,5668
11
-389,7035
21
-485,1514
31
-507,5668
0
LINE
8
0
10
-389,7035
20
-485,1514
30
-507,5668
11
-389,7035
21
-485,1514
31
-358,4586
0
LINE
8
0
10
-389,7035
20
-14,8486
30
-507,5668
11
-110,2965
21
-14,8486
31
-507,5668
0
LINE
8
0
10
-110,2965
20
-14,8486
30
-507,5668
11
-110,2965
21
-14,8486
31
-358,4586
0
LINE
8
0
10
-110,2965
20
-14,8486
30
-358,4586
11
-389,7035
21
-14,8486
31
-358,4586
0
LINE
8
0
10
-389,7035
20
-14,8486
30
-358,4586
11
-389,7035
21
-14,8486
31
-507,5668
0
ENDSEC
0
EOF
