# Max2Obj Version 4.0 Mar 10th, 2001
#
mtllib ./auticko.mtl
g
# object 03_-_Default to come ...
#
v  21.557659 0.369006 22.785406
v  4.431506 34.710712 1.017013
v  -95.798645 0.368998 -0.771041
v  4.431508 -33.972702 1.012399
v  55.836445 0.369012 0.942736
v  4.685588 0.369000 -0.946949
v  -17.768829 10.635548 13.543348
v  -17.768831 -10.542105 13.543349
v  35.262428 -22.605093 5.903607
v  35.262428 23.343107 5.903607
v  10.569998 17.298105 11.739449
v  -28.329224 0.046721 14.922752
v  10.570000 -16.560095 11.739449
v  45.202213 0.369009 11.429459
v  4.591165 0.369000 -0.947296
v  6.246952 12.594232 11.266457
v  16.685343 0.369004 11.475693
v  6.246951 -12.500788 11.513374
v  -75.168488 13.321620 0.318901
v  -75.168488 -12.583622 0.318901
v  -84.156021 5.923972 5.122268
v  -84.128464 0.368999 6.904935
v  -84.156006 -5.185974 5.122268
v  -84.177002 0.368998 -1.723877
v  4.654113 13.912282 -0.631416
v  4.654114 -13.174279 -0.631416
v  25.669487 -13.174274 -0.315652
v  25.669487 13.912287 -0.315652
v  -45.511986 18.759642 4.666403
v  -89.519379 2.220656 3.323596
v  -89.537262 -6.367046 1.021950
v  -6.075140 -21.127302 9.466253
v  29.222507 -11.243397 14.418042
v  36.646225 -23.014444 2.185650
v  18.731518 -28.657482 5.277925
v  50.367146 -9.471162 4.917715
v  29.222507 11.981411 14.418041
v  36.646225 23.752462 2.185650
v  50.367146 10.209184 4.917715
v  18.731516 29.395493 5.277925
v  -40.097630 14.189751 -0.667795
v  -40.097626 -13.451751 -0.667795
v  -89.537262 7.105044 1.021950
v  -45.511982 -18.021641 4.666403
v  -89.519379 -1.482659 3.323596
v  -89.544266 5.253386 -1.260098
v  -89.544266 -4.515389 -1.260098
v  -90.884323 6.937397 -0.573641
v  8.091011 17.298103 -0.473505
v  8.091011 -16.560097 -0.473505
v  -41.433178 -21.504599 0.999651
v  31.072098 0.369007 -0.394564
v  33.816284 -19.020136 0.467498
v  33.816284 19.758152 0.467498
v  -90.871567 3.904668 1.852850
v  -15.403728 24.007999 6.619921
v  8.892329 18.710945 11.278928
v  -90.860214 0.368999 2.873928
v  -15.403727 -23.269997 6.640497
v  8.892330 -17.948120 11.143362
v  25.022385 -21.403120 8.314872
v  40.450176 -12.374264 9.620811
v  48.223251 -15.317025 3.415079
v  24.106508 -30.271069 3.505132
v  53.711617 0.369011 4.507905
v  40.450176 13.112282 9.620811
v  25.022383 22.141132 8.314872
v  24.106506 31.009081 3.505132
v  48.223251 16.055046 3.415079
v  -7.029947 17.367470 -0.561627
v  -7.029945 -16.629467 -0.561627
v  -41.433178 22.242599 0.999651
v  -90.884323 -6.199400 -0.573641
v  -90.871567 -3.166670 1.852850
v  -90.884781 0.368998 -1.575122
v  -75.846848 11.702704 2.702654
v  -75.846848 -10.964706 2.702655
v  -74.500259 8.708574 -0.912943
v  -74.500259 -7.970576 -0.912943
v  14.732702 8.370863 15.586653
v  14.732702 -7.632854 15.662297
v  21.300497 -9.144830 17.720358
v  31.325678 -3.501794 18.080423
v  31.325678 4.239809 18.080423
v  21.300497 9.882840 17.720358
v  17.858921 8.980204 18.280146
v  17.160965 0.369004 19.581940
v  17.858921 -8.242193 18.298492
v  25.345352 -5.880254 20.118486
v  32.474525 0.369007 18.953136
v  25.345352 6.618266 20.118486
v  18.044544 4.522269 19.852114
v  18.044546 -3.784259 19.875610
v  21.400669 -5.724568 20.524263
v  27.405102 -2.161009 20.721283
v  27.405102 2.899022 20.721281
v  21.400671 6.462579 20.519676
v  19.600513 5.083514 21.152912
v  18.054098 0.369005 21.317345
v  19.600512 -4.345504 21.164520
v  23.812260 -3.349206 21.684990
v  26.939896 0.369006 21.539152
v  23.812260 4.087218 21.683844
v  -53.898849 -4.200889 10.888317
v  5.666957 9.023434 2.708163
v  5.666957 -8.285427 2.769893
v  -53.898849 4.938891 10.888317
v  -55.367062 0.369001 11.666071
v  -26.562759 -4.997220 14.030063
v  -26.562759 5.090663 14.014629
v  5.849527 0.369004 3.343213
v  -8.038354 31.476797 1.004330
v  -7.985363 28.173483 4.434977
v  -7.985133 -27.435604 4.520666
v  -7.857465 -11.341028 12.715346
v  -8.070131 0.369000 -1.052911
v  -8.067325 4.130426 -0.871228
v  -8.062593 17.268234 -0.564943
v  -8.038280 -30.738810 1.009093
v  -8.062595 -16.530231 -0.564943
v  -8.067326 -3.392426 -0.871228
v  -6.075699 22.798895 9.210607
v  -7.859018 11.434347 12.614777
v  -17.720224 8.118569 9.762983
v  -26.477158 4.403419 8.255933
v  -28.354706 -0.346901 8.808022
v  -26.476509 -4.954249 8.297937
v  -17.719826 -7.903273 9.788815
v  14.200683 8.062403 12.879047
v  17.945601 3.036291 15.650875
v  14.200682 -7.324394 12.986568
v  17.945601 -2.298282 15.676090
v  10.919403 8.279926 8.586218
v  10.709719 3.253814 5.945137
v  10.709719 -2.515806 5.965713
v  10.919402 -7.541918 8.689100
v  13.416816 8.039668 11.128939
v  17.054485 4.959641 13.975152
v  18.567949 0.369004 15.673235
v  13.416815 -7.301660 11.243269
v  17.054485 -4.221632 14.027247
v  11.964234 5.231544 7.255888
v  11.984056 0.369004 6.759524
v  11.964234 -4.493537 7.302185
# 144 vertices

vt  0.000000 1.000000 0.000000
vt  0.250000 1.000000 0.000000
vt  0.500000 1.000000 0.000000
vt  0.750000 1.000000 0.000000
vt  0.000000 0.500000 0.000000
vt  0.243936 0.503394 0.000000
vt  0.480887 0.494804 0.000000
vt  0.732253 0.503858 0.000000
vt  1.000000 0.500000 0.000000
vt  0.000000 0.000000 0.000000
vt  0.250000 0.000000 0.000000
vt  0.500000 0.000000 0.000000
vt  0.750000 0.000000 0.000000
vt  0.083333 0.666667 0.000000
vt  0.333333 0.666667 0.000000
vt  0.586589 0.653646 0.000000
vt  0.836589 0.653646 0.000000
vt  0.000000 0.750000 0.000000
vt  0.875000 0.750000 0.000000
vt  0.125000 0.750000 0.000000
vt  0.250000 0.750000 0.000000
vt  0.375000 0.750000 0.000000
vt  0.500000 0.750000 0.000000
vt  0.625000 0.750000 0.000000
vt  0.750000 0.750000 0.000000
vt  0.000297 0.000593 0.000000
vt  0.250000 0.000593 0.000000
vt  0.036682 0.713318 0.000000
vt  0.061191 0.877619 0.000000
vt  0.250000 0.877619 0.000000
vt  0.356659 0.713318 0.000000
vt  0.163784 0.485961 0.000000
vt  0.320615 0.485961 0.000000
vt  0.189593 0.560407 0.000000
vt  0.198882 0.602236 0.000000
vt  0.250000 0.602236 0.000000
vt  0.280204 0.560407 0.000000
vt  0.175134 0.350267 0.000000
vt  0.250000 0.350267 0.000000
vt  0.000099 0.166864 0.000000
vt  0.333333 0.166864 0.000000
vt  0.583333 0.333333 0.000000
vt  0.833333 0.333333 0.000000
vt  0.112017 0.556768 0.000000
vt  0.212825 0.554215 0.000000
vt  0.285020 0.520136 0.000000
vt  0.389213 0.625876 0.000000
vt  0.552083 0.791667 0.000000
vt  0.611111 0.555556 0.000000
vt  0.527778 0.638889 0.000000
vt  0.652778 0.638889 0.000000
vt  0.802083 0.791667 0.000000
vt  0.861111 0.555556 0.000000
vt  0.777778 0.638889 0.000000
vt  0.902778 0.638889 0.000000
vt  0.087643 0.337715 0.000000
vt  0.331214 0.337715 0.000000
vt  0.204912 0.520136 0.000000
vt  0.359598 0.556768 0.000000
vt  0.260068 0.554215 0.000000
vt  0.200092 0.450089 0.000000
vt  0.274952 0.450089 0.000000
vt  0.207537 0.492556 0.000000
vt  0.000000 0.250000 0.000000
vt  0.875000 0.250000 0.000000
vt  0.375000 0.250000 0.000000
vt  0.500000 0.250000 0.000000
vt  0.378917 0.473621 0.000000
vt  0.625000 0.250000 0.000000
vt  0.750000 0.250000 0.000000
vt  0.611111 0.472222 0.000000
vt  0.861111 0.472222 0.000000
vt  0.214332 0.533689 0.000000
vt  0.058839 0.587524 0.000000
vt  0.008614 0.632011 0.000000
vt  0.937500 0.625000 0.000000
vt  0.224441 0.551118 0.000000
vt  0.250000 0.551118 0.000000
vt  0.397399 0.587524 0.000000
vt  0.425380 0.632011 0.000000
vt  0.500000 0.625000 0.000000
vt  0.540799 0.711806 0.000000
vt  0.603299 0.711806 0.000000
vt  0.649306 0.590278 0.000000
vt  0.555556 0.590278 0.000000
vt  0.687500 0.625000 0.000000
vt  0.750000 0.625000 0.000000
vt  0.790799 0.711806 0.000000
vt  0.853299 0.711806 0.000000
vt  0.899306 0.590278 0.000000
vt  0.805556 0.590278 0.000000
vt  0.022010 0.251293 0.000000
vt  0.353637 0.251293 0.000000
vt  0.093701 0.473621 0.000000
vt  0.283707 0.492556 0.000000
vt  0.268823 0.533689 0.000000
vt  0.212567 0.425134 0.000000
vt  0.250000 0.425134 0.000000
vt  0.170417 0.534328 0.000000
vt  0.312420 0.534328 0.000000
vt  0.159503 0.409518 0.000000
vt  0.295256 0.409518 0.000000
vt  0.024468 0.835234 0.000000
vt  0.307915 0.835234 0.000000
vt  0.517361 0.847222 0.000000
vt  0.559028 0.847222 0.000000
vt  0.767361 0.847222 0.000000
vt  0.809028 0.847222 0.000000
vt  0.000000 0.875000 0.000000
vt  0.812500 0.875000 0.000000
vt  0.030595 0.938809 0.000000
vt  0.250000 0.938809 0.000000
vt  0.312500 0.875000 0.000000
vt  0.500000 0.875000 0.000000
vt  0.532118 0.871528 0.000000
vt  0.562500 0.875000 0.000000
vt  0.750000 0.875000 0.000000
vt  0.782118 0.871528 0.000000
vt  0.013766 0.912261 0.000000
vt  0.280104 0.912261 0.000000
vt  0.512370 0.898438 0.000000
vt  0.538411 0.898438 0.000000
vt  0.762370 0.898438 0.000000
vt  0.788411 0.898438 0.000000
vt  0.000000 0.937500 0.000000
vt  0.781250 0.937500 0.000000
vt  0.015298 0.969405 0.000000
vt  0.250000 0.969405 0.000000
vt  0.281250 0.937500 0.000000
vt  0.500000 0.937500 0.000000
vt  0.520725 0.917101 0.000000
vt  0.531250 0.937500 0.000000
vt  0.750000 0.937500 0.000000
vt  0.770725 0.917101 0.000000
vt  0.278384 0.644828 0.000000
vt  0.076552 0.751901 0.000000
vt  0.297498 0.751901 0.000000
vt  0.149202 0.644828 0.000000
vt  0.250000 0.676118 0.000000
vt  0.161941 0.676118 0.000000
vt  0.289804 0.703349 0.000000
vt  0.108522 0.703349 0.000000
vt  0.093095 0.813809 0.000000
vt  0.250000 0.813809 0.000000
vt  0.024304 0.493158 0.000000
vt  0.035939 0.553460 0.000000
vt  0.429893 0.551437 0.000000
vt  0.342848 0.685695 0.000000
vt  0.024074 0.048149 0.000000
vt  0.250000 0.048149 0.000000
vt  0.024069 0.092344 0.000000
vt  0.024059 0.253992 0.000000
vt  0.454439 0.489310 0.000000
vt  0.352937 0.253992 0.000000
vt  0.272103 0.092344 0.000000
vt  0.047850 0.625876 0.000000
vt  0.064308 0.685692 0.000000
vt  0.080475 0.702587 0.000000
vt  0.090016 0.731453 0.000000
vt  0.105987 0.788026 0.000000
vt  0.250000 0.788026 0.000000
vt  0.294258 0.731454 0.000000
vt  0.318231 0.702589 0.000000
vt  0.040780 0.808724 0.000000
vt  0.038751 0.883887 0.000000
vt  0.304858 0.808724 0.000000
vt  0.269305 0.883887 0.000000
vt  0.058141 0.780946 0.000000
vt  0.076946 0.814443 0.000000
vt  0.265833 0.814443 0.000000
vt  0.301386 0.780946 0.000000
vt  0.049199 0.795151 0.000000
vt  0.041298 0.851366 0.000000
vt  0.045893 0.908214 0.000000
vt  0.250000 0.908214 0.000000
vt  0.303226 0.795151 0.000000
vt  0.283019 0.851366 0.000000
vt  0.068207 0.806227 0.000000
vt  0.077143 0.845714 0.000000
vt  0.250000 0.845714 0.000000
vt  0.278679 0.806227 0.000000
# 181 texture vertices

vn  -0.641283 -0.000523 0.767304
vn  -0.031684 0.078633 -0.996400
vn  -0.578145 0.228427 0.783307
vn  0.017397 -0.078963 -0.996726
vn  0.062466 -0.046507 -0.996963
vn  0.003675 0.023300 -0.999722
vn  -0.143806 0.463998 0.874085
vn  -0.146728 -0.492511 0.857848
vn  0.309458 -0.459417 0.832569
vn  0.129850 0.549487 0.825350
vn  -0.197753 0.083534 0.976686
vn  -0.119470 -0.203758 0.971704
vn  0.026680 -0.522850 0.852007
vn  0.357043 -0.260460 0.897040
vn  0.003675 0.023300 -0.999722
vn  -0.197753 0.083534 0.976686
vn  -0.630178 -0.331590 0.702085
vn  0.055894 -0.305417 0.950577
vn  -0.226645 0.834495 0.502245
vn  -0.332725 -0.821433 0.463187
vn  -0.143806 0.463998 0.874085
vn  -0.467550 0.268006 0.842360
vn  -0.495819 -0.406023 0.767664
vn  -0.010203 0.108499 -0.994044
vn  0.003675 0.023300 -0.999722
vn  0.022929 -0.023339 -0.999465
vn  0.020928 -0.014173 -0.999681
vn  0.013825 0.025174 -0.999587
vn  -0.226645 0.834495 0.502245
vn  -0.578145 0.228427 0.783307
vn  -0.687505 -0.498506 0.528042
vn  0.019913 -0.538225 0.842566
vn  0.026680 -0.522850 0.852007
vn  0.138656 -0.306801 -0.941620
vn  0.049718 -0.444246 0.894524
vn  0.829177 -0.261239 0.494186
vn  0.357043 0.260460 0.897040
vn  0.232329 0.240757 -0.942369
vn  0.620798 0.179211 0.763213
vn  -0.056320 0.527847 0.847470
vn  -0.010203 0.108499 -0.994044
vn  -0.033471 -0.253322 -0.966803
vn  -0.377672 0.898322 0.224460
vn  -0.227375 -0.819717 0.525703
vn  -0.506997 -0.161517 0.846680
vn  -0.022116 0.070390 -0.997274
vn  -0.077558 -0.322797 -0.943285
vn  -0.377672 0.898322 0.224460
vn  0.022929 0.023339 -0.999465
vn  0.022929 -0.023339 -0.999465
vn  -0.032454 -0.197491 -0.979767
vn  0.020928 -0.014173 -0.999681
vn  0.062466 -0.046507 -0.996963
vn  0.028806 0.093184 -0.995232
vn  -0.577687 0.222124 0.785455
vn  -0.139122 0.474593 0.869141
vn  -0.197753 0.083534 0.976686
vn  -0.578145 0.228427 0.783307
vn  -0.146728 -0.492511 0.857848
vn  0.019913 -0.538225 0.842566
vn  0.026680 -0.522850 0.852007
vn  0.309458 -0.459417 0.832569
vn  0.285281 -0.282799 -0.915773
vn  0.200821 -0.500185 -0.842310
vn  0.829177 -0.261239 0.494186
vn  0.357043 0.260460 0.897040
vn  0.129850 0.549487 0.825350
vn  0.200591 0.499835 -0.842572
vn  0.285281 0.282799 -0.915773
vn  0.000923 0.023313 -0.999728
vn  0.017397 -0.078963 -0.996726
vn  -0.227375 0.819718 0.525703
vn  -0.687505 -0.498506 0.528042
vn  -0.645578 -0.432559 0.629382
vn  -0.022116 0.070390 -0.997274
vn  -0.226645 0.834495 0.502245
vn  -0.332725 -0.821433 0.463187
vn  -0.010203 0.108499 -0.994044
vn  -0.033471 -0.253322 -0.966803
vn  -0.348682 0.229068 0.908817
vn  -0.296670 -0.264846 0.917520
vn  0.102335 -0.710024 0.696702
vn  0.481027 -0.326236 0.813746
vn  0.484490 0.478172 0.732544
vn  -0.028267 0.602455 0.797652
vn  -0.654854 0.020224 0.755485
vn  -0.733205 0.112357 0.670661
vn  -0.647979 -0.032243 0.760975
vn  0.120914 -0.680622 0.722588
vn  0.481027 -0.326236 0.813746
vn  0.447786 0.478870 0.755097
vn  -0.641283 -0.000523 0.767304
vn  -0.368155 -0.304148 0.878610
vn  0.065463 -0.348627 0.934973
vn  0.290059 -0.105617 0.951163
vn  0.217592 0.263772 0.939722
vn  -0.111454 0.343816 0.932399
vn  -0.641283 -0.000523 0.767304
vn  -0.367595 0.308648 0.877274
vn  -0.637914 0.000050 0.770108
vn  -0.110833 -0.343237 0.932687
vn  0.217592 -0.263771 0.939723
vn  0.289890 0.106015 0.951170
vn  -0.119470 -0.203758 0.971704
vn  0.167822 -0.880468 0.443409
vn  0.162180 -0.068632 0.984372
vn  -0.159490 0.215212 0.963456
vn  -0.119470 -0.203758 0.971704
vn  -0.117680 -0.212880 0.969966
vn  0.483755 -0.725622 0.489341
vn  0.159030 0.075587 0.984376
vn  -0.183953 0.706635 0.683249
vn  -0.183953 0.706635 0.683249
vn  -0.089482 -0.597582 0.796799
vn  0.055894 -0.305417 0.950577
vn  0.008332 0.048237 -0.998801
vn  0.008332 0.048237 -0.998801
vn  0.000970 0.023307 -0.999728
vn  -0.007391 -0.110117 -0.993891
vn  -0.007391 -0.110117 -0.993891
vn  0.008805 -0.048237 -0.998797
vn  -0.123792 0.634175 0.763215
vn  0.067533 0.276552 0.958623
vn  0.167822 -0.880468 0.443409
vn  0.371037 -0.921410 0.115477
vn  0.930729 -0.361249 0.056947
vn  0.926530 0.375847 0.016759
vn  0.113278 0.812177 0.572308
vn  -0.516921 -0.821057 0.242193
vn  -0.893051 -0.205015 0.400535
vn  -0.852167 0.351366 0.387755
vn  -0.919083 0.214092 -0.330834
vn  -0.699832 -0.268277 0.662013
vn  -0.486295 0.031695 0.873220
vn  -0.703296 0.117760 0.701076
vn  -0.517305 0.736071 0.436572
vn  -0.516921 -0.821057 0.242193
vn  -0.630178 -0.331590 0.702085
vn  -0.893051 -0.205015 0.400535
vn  -0.852167 0.351366 0.387755
vn  -0.625650 0.339950 0.702137
vn  -0.806421 -0.445902 0.388403
vn  -0.486295 0.031695 0.873220
vn  -0.690025 0.050229 0.722041
# 144 vertex normals

g 03_-_Default
usemtl 03_-_Default
f 6/10/6 15/26/15 25/40/25
f 49/64/49 6/10/6 25/40/25
f 15/26/15 70/92/70 25/40/25
f 2/5/2 49/64/49 25/40/25
f 25/40/25 70/92/70 2/5/2
f 6/11/6 50/66/50 26/41/26
f 4/7/4 71/93/71 26/41/26
f 26/41/26 50/66/50 4/7/4
f 15/27/15 6/11/6 26/41/26
f 71/93/71 15/27/15 26/41/26
f 6/12/6 52/69/52 27/42/27
f 50/67/50 6/12/6 27/42/27
f 5/8/5 53/71/53 27/42/27
f 27/42/27 52/69/52 5/8/5
f 4/7/4 50/67/50 27/42/27
f 27/42/27 53/71/53 4/7/4
f 6/13/6 49/65/49 28/43/28
f 52/70/52 6/13/6 28/43/28
f 2/9/2 54/72/54 28/43/28
f 28/43/28 49/65/49 2/9/2
f 5/8/5 52/70/52 28/43/28
f 28/43/28 54/72/54 5/8/5
f 2/5/2 112/145/112 113/146/113
f 19/32/19 76/99/76 29/44/29
f 29/44/29 72/94/72 19/32/19
f 21/34/21 7/14/7 29/44/29
f 76/99/76 21/34/21 29/44/29
f 7/14/7 56/74/56 29/44/29
f 16/28/16 11/18/11 57/75/57
f 3/6/3 58/77/58 30/45/30
f 30/45/30 55/73/55 3/6/3
f 22/35/22 21/34/21 30/45/30
f 58/77/58 22/35/22 30/45/30
f 21/34/21 55/73/55 30/45/30
f 3/6/3 73/95/73 31/46/31
f 31/46/31 74/96/74 3/6/3
f 20/33/20 77/100/77 31/46/31
f 31/46/31 73/95/73 20/33/20
f 23/37/23 74/96/74 31/46/31
f 77/100/77 23/37/23 31/46/31
f 4/7/4 60/80/60 32/47/32
f 32/47/32 114/147/114 4/7/4
f 18/31/18 115/148/115 32/47/32
f 60/80/60 18/31/18 32/47/32
f 8/15/8 59/79/59 32/47/32
f 13/23/13 61/82/61 33/48/33
f 9/16/9 62/83/62 33/48/33
f 33/48/33 61/82/61 9/16/9
f 62/83/62 14/24/14 33/48/33
f 4/7/4 53/71/53 34/49/34
f 34/49/34 64/85/64 4/7/4
f 5/8/5 63/84/63 34/49/34
f 34/49/34 53/71/53 5/8/5
f 9/16/9 64/85/64 34/49/34
f 34/49/34 63/84/63 9/16/9
f 13/23/13 60/81/60 35/50/35
f 61/82/61 13/23/13 35/50/35
f 4/7/4 64/85/64 35/50/35
f 35/50/35 60/81/60 4/7/4
f 9/16/9 61/82/61 35/50/35
f 35/50/35 64/85/64 9/16/9
f 5/8/5 65/86/65 36/51/36
f 36/51/36 63/84/63 5/8/5
f 14/24/14 62/83/62 36/51/36
f 65/86/65 14/24/14 36/51/36
f 9/16/9 63/84/63 36/51/36
f 36/51/36 62/83/62 9/16/9
f 14/25/14 66/88/66 37/52/37
f 10/17/10 67/89/67 37/52/37
f 37/52/37 66/88/66 10/17/10
f 67/89/67 11/19/11 37/52/37
f 5/8/5 54/72/54 38/53/38
f 38/53/38 69/91/69 5/8/5
f 2/9/2 68/90/68 38/53/38
f 38/53/38 54/72/54 2/9/2
f 10/17/10 69/91/69 38/53/38
f 38/53/38 68/90/68 10/17/10
f 14/25/14 65/87/65 39/54/39
f 66/88/66 14/25/14 39/54/39
f 5/8/5 69/91/69 39/54/39
f 39/54/39 65/87/65 5/8/5
f 10/17/10 66/88/66 39/54/39
f 39/54/39 69/91/69 10/17/10
f 2/9/2 57/76/57 40/55/40
f 40/55/40 68/90/68 2/9/2
f 11/19/11 67/89/67 40/55/40
f 57/76/57 11/19/11 40/55/40
f 10/17/10 68/90/68 40/55/40
f 40/55/40 67/89/67 10/17/10
f 15/26/15 116/149/116 117/151/117
f 117/151/117 118/152/118 70/92/70
f 70/92/70 15/26/15 117/151/117
f 24/38/24 78/101/78 41/56/41
f 19/32/19 72/94/72 41/56/41
f 41/56/41 78/101/78 19/32/19
f 70/92/70 118/152/118 112/145/112
f 112/145/112 2/5/2 70/92/70
f 119/153/119 120/154/120 71/93/71
f 71/93/71 4/7/4 119/153/119
f 20/33/20 79/102/79 42/57/42
f 42/57/42 51/68/51 20/33/20
f 116/150/116 121/155/121 42/57/42
f 42/57/42 24/39/24 116/150/116
f 79/102/79 24/39/24 42/57/42
f 120/154/120 121/155/121 15/27/15
f 15/27/15 71/93/71 120/154/120
f 2/5/2 113/146/113 122/156/122
f 122/156/122 57/75/57 2/5/2
f 7/14/7 123/157/123 122/156/122
f 56/74/56 7/14/7 122/156/122
f 16/28/16 57/75/57 122/156/122
f 13/22/13 18/31/18 60/80/60
f 19/32/19 48/63/48 43/58/43
f 43/58/43 76/99/76 19/32/19
f 3/6/3 55/73/55 43/58/43
f 43/58/43 48/63/48 3/6/3
f 21/34/21 76/99/76 43/58/43
f 55/73/55 21/34/21 43/58/43
f 20/33/20 51/68/51 44/59/44
f 44/59/44 77/100/77 20/33/20
f 4/7/4 114/147/114 119/153/119
f 8/15/8 23/37/23 44/59/44
f 59/79/59 8/15/8 44/59/44
f 23/37/23 77/100/77 44/59/44
f 22/36/22 58/78/58 45/60/45
f 3/6/3 74/96/74 45/60/45
f 45/60/45 58/78/58 3/6/3
f 23/37/23 22/36/22 45/60/45
f 74/96/74 23/37/23 45/60/45
f 24/38/24 75/97/75 46/61/46
f 78/101/78 24/38/24 46/61/46
f 3/6/3 48/63/48 46/61/46
f 46/61/46 75/97/75 3/6/3
f 19/32/19 78/101/78 46/61/46
f 46/61/46 48/63/48 19/32/19
f 20/33/20 73/95/73 47/62/47
f 47/62/47 79/102/79 20/33/20
f 3/6/3 75/98/75 47/62/47
f 47/62/47 73/95/73 3/6/3
f 24/39/24 79/102/79 47/62/47
f 75/98/75 24/39/24 47/62/47
f 11/18/11 16/28/16 80/103/80
f 86/109/86 11/18/11 80/103/80
f 18/31/18 13/22/13 81/104/81
f 13/22/13 88/113/88 81/104/81
f 13/23/13 33/48/33 82/105/82
f 88/114/88 13/23/13 82/105/82
f 33/48/33 89/115/89 82/105/82
f 14/24/14 90/116/90 83/106/83
f 33/48/33 14/24/14 83/106/83
f 89/115/89 33/48/33 83/106/83
f 14/25/14 37/52/37 84/107/84
f 90/117/90 14/25/14 84/107/84
f 37/52/37 91/118/91 84/107/84
f 11/19/11 86/110/86 85/108/85
f 37/52/37 11/19/11 85/108/85
f 91/118/91 37/52/37 85/108/85
f 1/1/1 98/125/98 92/119/92
f 92/119/92 99/127/99 1/1/1
f 86/109/86 80/103/80 92/119/92
f 98/125/98 86/109/86 92/119/92
f 80/103/80 87/111/87 92/119/92
f 87/111/87 99/127/99 92/119/92
f 1/2/1 99/128/99 93/120/93
f 93/120/93 100/129/100 1/2/1
f 87/112/87 81/104/81 93/120/93
f 99/128/99 87/112/87 93/120/93
f 81/104/81 88/113/88 93/120/93
f 88/113/88 100/129/100 93/120/93
f 1/3/1 100/130/100 94/121/94
f 94/121/94 101/131/101 1/3/1
f 88/114/88 82/105/82 94/121/94
f 100/130/100 88/114/88 94/121/94
f 82/105/82 89/115/89 94/121/94
f 89/115/89 101/131/101 94/121/94
f 1/3/1 101/131/101 95/122/95
f 95/122/95 102/132/102 1/3/1
f 89/115/89 83/106/83 95/122/95
f 101/131/101 89/115/89 95/122/95
f 83/106/83 90/116/90 95/122/95
f 90/116/90 102/132/102 95/122/95
f 1/4/1 102/133/102 96/123/96
f 96/123/96 103/134/103 1/4/1
f 90/117/90 84/107/84 96/123/96
f 102/133/102 90/117/90 96/123/96
f 84/107/84 91/118/91 96/123/96
f 91/118/91 103/134/103 96/123/96
f 1/4/1 103/134/103 97/124/97
f 97/124/97 98/126/98 1/4/1
f 91/118/91 85/108/85 97/124/97
f 103/134/103 91/118/91 97/124/97
f 85/108/85 86/110/86 97/124/97
f 86/110/86 98/126/98 97/124/97
f 12/21/12 108/139/108 104/135/104
f 104/135/104 109/141/109 12/21/12
f 22/36/22 23/37/23 104/135/104
f 108/139/108 22/36/22 104/135/104
f 23/37/23 8/15/8 104/135/104
f 8/15/8 109/141/109 104/135/104
f 123/157/123 124/158/124 105/136/105
f 105/136/105 16/28/16 123/157/123
f 124/158/124 7/14/7 110/142/110
f 110/142/110 125/159/125 124/158/124
f 126/160/126 125/159/125 110/142/110
f 110/142/110 12/20/12 126/160/126
f 109/141/109 127/162/127 126/161/126
f 126/161/126 12/21/12 109/141/109
f 8/15/8 115/148/115 128/163/128
f 127/162/127 109/141/109 8/15/8
f 8/15/8 128/163/128 127/162/127
f 22/35/22 108/140/108 107/138/107
f 12/20/12 110/142/110 107/138/107
f 107/138/107 108/140/108 12/20/12
f 7/14/7 21/34/21 107/138/107
f 110/142/110 7/14/7 107/138/107
f 21/34/21 22/35/22 107/138/107
f 72/94/72 29/44/29 56/74/56
f 72/94/72 56/74/56 113/146/113
f 112/145/112 72/94/72 113/146/113
f 32/47/32 59/79/59 114/147/114
f 115/148/115 8/15/8 32/47/32
f 41/56/41 117/151/117 116/149/116
f 116/149/116 24/38/24 41/56/41
f 117/151/117 41/56/41 118/152/118
f 118/152/118 41/56/41 72/94/72
f 72/94/72 112/145/112 118/152/118
f 51/68/51 42/57/42 120/154/120
f 120/154/120 119/153/119 51/68/51
f 116/150/116 15/27/15 121/155/121
f 120/154/120 42/57/42 121/155/121
f 113/146/113 56/74/56 122/156/122
f 123/157/123 16/28/16 122/156/122
f 59/79/59 44/59/44 51/68/51
f 59/79/59 51/68/51 119/153/119
f 114/147/114 59/79/59 119/153/119
f 123/157/123 7/14/7 124/158/124
f 125/159/125 105/136/105 124/158/124
f 111/143/111 105/136/105 125/159/125
f 125/159/125 126/160/126 111/143/111
f 127/162/127 106/137/106 111/144/111
f 111/144/111 126/161/126 127/162/127
f 115/148/115 18/31/18 106/137/106
f 106/137/106 128/163/128 115/148/115
f 128/163/128 106/137/106 127/162/127
f 16/28/16 137/172/137 129/164/129
f 17/29/17 138/173/138 129/164/129
f 129/164/129 137/172/137 17/29/17
f 80/103/80 16/28/16 129/164/129
f 138/173/138 80/103/80 129/164/129
f 17/29/17 139/174/139 130/165/130
f 130/165/130 138/173/138 17/29/17
f 87/111/87 80/103/80 130/165/130
f 139/174/139 87/111/87 130/165/130
f 80/103/80 138/173/138 130/165/130
f 17/30/17 140/176/140 131/166/131
f 131/166/131 141/177/141 17/30/17
f 18/31/18 81/104/81 131/166/131
f 140/176/140 18/31/18 131/166/131
f 81/104/81 141/177/141 131/166/131
f 87/112/87 139/175/139 132/167/132
f 17/30/17 141/177/141 132/167/132
f 132/167/132 139/175/139 17/30/17
f 81/104/81 87/112/87 132/167/132
f 141/177/141 81/104/81 132/167/132
f 17/29/17 137/172/137 133/168/133
f 133/168/133 142/178/142 17/29/17
f 16/28/16 105/136/105 133/168/133
f 137/172/137 16/28/16 133/168/133
f 105/136/105 142/178/142 133/168/133
f 111/143/111 143/179/143 134/169/134
f 17/29/17 142/178/142 134/169/134
f 134/169/134 143/179/143 17/29/17
f 105/136/105 111/143/111 134/169/134
f 142/178/142 105/136/105 134/169/134
f 17/30/17 143/180/143 135/170/135
f 135/170/135 144/181/144 17/30/17
f 111/144/111 106/137/106 135/170/135
f 143/180/143 111/144/111 135/170/135
f 106/137/106 144/181/144 135/170/135
f 18/31/18 140/176/140 136/171/136
f 17/30/17 144/181/144 136/171/136
f 136/171/136 140/176/140 17/30/17
f 106/137/106 18/31/18 136/171/136
f 144/181/144 106/137/106 136/171/136
# 284 faces

g
